<svg width="506" height="379" viewBox="0 0 506 379" fill="none" xmlns="http://www.w3.org/2000/svg">
<g clip-path="url(#clip0_81_1605)">
<path d="M506 0H0V379H506V0Z" fill="#FFF502"/>
<path fill-rule="evenodd" clip-rule="evenodd" d="M268.008 73.5416C269.967 73.3325 270.246 75.985 270.514 77.1943C271.268 76.7186 271.94 77.1733 272.111 76.0625C274.498 78.5606 276.41 81.428 278.53 84.1418C280.563 86.7456 283.742 88.8165 285.5 91.5537C286.993 93.8775 284.53 97.4057 284.226 99.8838C283.882 102.676 284.612 105.872 286.522 108.001C287.416 108.997 288.508 109.689 289.828 109.956C291.141 110.222 292.39 109.453 293.547 109.617C294.506 109.753 294.548 110.386 294.883 111.327C295.341 112.618 295.926 113.837 297.009 114.743C298.219 115.756 299.52 116.049 300.443 117.41C301.249 118.597 301.706 119.747 302.955 120.572C304.623 121.672 307.298 122.004 307.118 124.573C307.404 124.346 307.691 124.118 307.978 123.891C308.642 126.024 309.557 128.09 310.534 130.096C310.991 131.036 311.226 131.535 311.203 132.581C311.187 133.27 310.809 133.791 311.218 134.458C311.872 135.525 313.621 135.381 314.42 136.244C315.239 137.129 314.389 138.329 315.335 139.101C314.937 139.223 313.832 140.114 314.247 140.655C314.845 141.433 314.89 140.367 315.308 140.496C316.27 140.79 316.067 141.988 316.817 142.314C316.971 142.381 316.96 141.663 316.952 141.478L316.951 141.471L317.53 142.6C322.405 152.022 328.118 160.998 332.711 170.556L333.257 171.706C341.906 190.17 352.188 208.148 363.559 225.083C366.241 229.078 369.184 233.047 371.664 237.156C374.156 241.286 377.262 244.946 380.018 248.895C382.854 252.957 385.449 257.185 388.307 261.229C390.587 264.454 393.373 267.887 393.336 272.045C393.319 273.893 393.05 275.935 391.266 276.928C391.223 276.166 390.068 277.009 389.793 277.196C388.602 278.005 389.25 277.916 387.965 277.633C385.881 277.173 384.101 277.795 382.173 276.612C378.083 274.102 374.052 271.522 369.889 269.128C360.89 263.952 351.981 258.653 343.634 252.468C329.041 241.655 313.187 231.966 299.776 219.666C286.376 207.376 272.313 195.183 256.411 186.194C255.345 185.591 252.29 184.687 252.572 183.25C252.819 181.99 255.566 180.225 256.53 179.353C259.874 176.326 263.358 173.462 266.584 170.306C272.539 164.479 278.451 158.048 283.228 151.212C285.552 147.886 286.738 144.187 288.094 140.405C289.292 137.067 290.399 132.958 288.455 129.656C287.555 128.126 286.313 127.506 284.576 127.622C283.138 127.718 283.202 128.012 282.632 126.488C282.018 124.849 281.519 122.946 279.873 121.996C278.168 121.013 277.006 122.062 275.625 123.046C274.037 120.755 272.088 116.791 268.885 116.572C265.541 116.343 263.641 120.469 262.486 122.951C259.071 130.289 254.628 137.143 249.85 143.678C244.67 150.761 239.375 157.967 233.668 164.637C232.46 166.049 231.088 168.11 229.386 168.966C227.64 169.846 226.19 169.02 224.714 168.008C221.236 165.625 217.853 163.178 214.231 160.996C210.219 158.58 206.095 156.366 202.004 154.089C200.199 153.085 198.486 151.875 196.626 150.973C194.894 150.133 193.006 149.716 191.232 148.981C197.747 147.041 204.608 149.582 210.774 151.597C213.974 152.643 217.32 153.732 220.737 153.451C223.692 153.208 226.374 151.628 228.711 149.902C232.936 146.783 233.268 142.097 231.89 137.361C230.305 131.91 227.88 126.667 226.048 121.291C225.214 118.845 224.64 116.248 226.537 114.135C228.234 112.244 230.431 112.011 232.748 112.755C238.365 114.561 243.348 116.256 249.369 116.084C254.077 115.95 260.065 114.616 263.237 110.795C264.975 108.701 265.042 105.821 265.049 103.224C265.057 100.145 264.863 97.0488 264.432 94.001C263.662 88.5628 261.664 83.1174 264.169 77.8372C264.756 76.5989 266.391 73.7145 268.008 73.5416ZM316.95 141.453L316.951 141.471L316.949 141.467C316.948 141.427 316.949 141.427 316.95 141.453ZM122.107 115.927C123.579 113.894 127.607 109.158 130.682 110.194C131.219 110.376 131.607 110.91 131.961 111.308C132.212 111.634 132.461 111.961 132.707 112.289C132.861 112.721 133.136 112.848 133.534 112.671C134.612 114.163 136.134 115.289 136.754 117.121C137.368 118.936 139.016 120.697 139.988 122.362C140.74 123.649 142.435 127.087 142.305 128.697V132.807C142.152 134.405 139.162 137.262 138.111 138.343C135.5 141.027 132.664 141.371 128.795 141.028C125.517 140.738 121.271 139.647 119.052 137.045C116.923 134.548 116.953 130.679 117.268 127.604C117.708 123.311 119.594 119.399 122.107 115.927ZM132.193 116.609C131.593 115.495 130.28 115.22 129.126 115.352C127.973 115.484 126.649 115.581 125.592 116.094C124.615 116.569 124.121 117.401 122.904 117.121C123.386 117.951 122.522 118.43 122.398 119.178C122.238 120.138 122.548 120.999 123.183 121.728C124.498 123.238 126.463 123.208 128.291 123.356C129.836 123.48 131.737 123.735 132.645 125.182C133.231 126.114 132.699 126.786 132.974 127.723C133.176 128.413 134.02 128.809 134.389 129.402C135.626 127.584 135.583 123.689 134.828 121.744C134.472 120.826 133.798 119.63 133.264 118.824C133.09 118.56 132.677 118.245 132.567 118.027C132.377 117.65 132.4 116.993 132.193 116.609Z" fill="#FEFFCD"/>
<path fill-rule="evenodd" clip-rule="evenodd" d="M276.377 359.118C278.615 358.244 281.373 358.652 283.719 358.695C286.665 358.747 289.618 358.971 292.555 359.2C298.194 359.642 303.806 359.455 309.45 359.982C312.252 360.243 315.057 360.485 317.861 360.723C320.316 360.932 323.168 361.582 325.619 361.114C326.631 360.921 329.362 359.97 328.856 358.49C328.466 357.348 325.39 356.644 324.389 356.319C322.032 355.554 319.599 355.006 317.217 354.324C315.993 353.973 314.775 353.596 313.487 353.718C312.393 353.822 311.242 354.637 310.134 354.543C308.495 354.404 307.651 352.349 306.449 351.443C304.536 350 303.117 350.771 301.651 352.362C300.566 353.538 299.533 355.317 297.753 355.422C295.49 355.556 295.049 353.617 296.048 351.973C296.968 350.459 299.474 348.907 299.608 347.019C299.693 345.826 297.782 342.634 296.683 342.18C294.833 341.417 292.219 343.438 290.548 344.058C287.628 345.141 284.647 346.099 281.691 347.078C279.669 347.746 276.668 347.806 276.286 350.172C275.808 353.135 276.391 356.143 276.377 359.118ZM160.654 313.573C161.242 312.272 161.859 311.532 160.684 310.325C160.027 309.65 159.1 309.318 158.453 308.617C157.481 307.565 155.958 304.688 158.042 303.963C160.033 303.271 161.71 306.039 163.313 306.647C165.347 307.418 166.607 306.124 166.898 304.184C167.272 301.69 166.861 299.084 167.159 296.559C167.45 294.084 168.316 292.029 168.98 289.659C169.431 288.052 169.982 286.434 167.939 286.078C166.065 285.751 163.892 286.528 161.992 286.633C159.028 286.795 156.029 286.944 153.091 287.388C149.81 287.883 149.869 291.234 149.045 293.974C147.048 300.614 144.37 307.13 143.123 313.977C142.585 316.929 144.011 318.951 145.67 321.272C147.747 324.178 149.908 327.077 152.26 329.769C153.831 331.567 155.601 333.242 157.888 334.068C160.48 335.005 161.47 333.965 160.872 331.414C160.083 328.047 158.892 324.795 159.032 321.288C159.083 320.011 159.455 318.639 158.533 317.57C157.894 316.829 156.798 316.579 155.964 316.128C154.588 315.384 152.457 312.989 155.137 312.474C156.957 312.124 158.892 313.346 160.654 313.573ZM222.551 181.675C224.187 183.499 225.964 185.244 227.515 187.139C228.404 188.226 229.034 189.532 229.988 190.561C232.078 192.817 234.16 190.318 236.011 188.857C243.289 183.11 250.137 176.883 257.072 170.733C260.376 167.803 263.89 165.1 267.141 162.114C270.435 159.09 273.177 155.549 276.262 152.326C277.744 150.778 279.518 149.243 280.433 147.266C281.213 145.581 281.386 143.746 282.275 142.079C283.814 139.193 286.638 135.841 285.991 132.35C284.084 134.346 280.908 141.499 277.582 138.145C275.207 135.75 277.632 132.211 277.527 129.419C275.272 130.374 275.858 134.249 273.455 134.934C272.155 135.305 271.043 134.13 270.437 133.099C269.389 131.318 269.773 129.453 270.249 127.563C270.574 126.275 272.644 122.027 270.596 121.503C268.822 121.049 267.335 124.308 266.747 125.463C265.669 127.581 264.834 129.772 263.651 131.843C261.61 135.416 259.259 138.829 257.018 142.278C252.402 149.382 247.138 156.05 241.724 162.562C235.941 169.517 229.681 176.075 222.551 181.675ZM273.825 204.271C273.592 210.528 268.208 215.274 263.549 218.753C257.596 223.2 252.104 228.254 245.004 230.785C242.27 231.759 238.857 231.479 237.761 234.551C237.334 235.753 237.722 236.194 238.186 237.403C238.911 239.295 239.348 241.347 239.692 243.338C240.863 250.112 239.725 257.011 235.649 262.652C233.482 265.65 230.713 268.199 227.851 270.523C224.995 272.841 222.294 275.545 219.146 277.463C212.432 281.554 204.973 283.902 197.23 285.032C193.203 285.62 189.16 286.144 185.093 286.352C182.984 286.459 180.872 286.479 178.762 286.387C177.819 286.345 174.313 285.55 173.632 286.089C173.107 286.505 172.874 289.019 172.769 289.713C172.546 291.18 172.37 292.626 172.067 294.08C171.458 296.999 170.637 300.301 171.535 303.246C171.795 304.098 172.005 304.791 172.795 305.077C173.296 305.259 174.183 304.94 174.689 304.888C175.833 304.77 176.914 304.724 178.066 304.846C181.844 305.246 185.555 306.21 189.373 305.947C197.515 305.387 205.664 304.815 213.731 303.543C217.655 302.924 221.42 301.753 225.279 300.848C228.957 299.987 232.632 299.116 236.065 297.497C242.791 294.324 249.006 290.127 254.559 285.21C260.486 279.961 264.41 273.739 268.118 266.795C271.376 260.696 274.122 254.522 273.979 247.491C273.889 243.041 273.25 237.527 275.826 233.603C277.003 231.81 279.377 230.149 281.589 231.097C285.603 232.817 281.811 236.225 280.28 238.091C278.075 240.78 278.371 244.875 278.143 248.163C277.872 252.044 276.999 255.447 276.148 259.2C275.314 262.873 276.995 267.231 277.161 270.977C277.342 275.041 277.223 279.108 277.178 283.172C277.087 291.257 277.463 299.32 277.435 307.403C277.42 311.595 277.528 315.808 277.262 319.995C277.02 323.812 276.237 327.464 275.552 331.212C274.879 334.891 273.899 339.296 274.126 343.036C283.323 339.54 292.276 335.41 301.616 332.286C298.703 329.75 298.573 326.165 298.338 322.588C298.029 317.87 297.251 313.193 296.912 308.476C296.242 299.159 296.43 289.359 297.223 280.053C298.076 270.061 299.587 260.104 299.898 250.07C300.047 245.237 299.673 240.391 298.885 235.622C298.22 231.604 297.644 226.548 295.546 222.988C293.541 219.586 289.855 217.425 286.78 215.107C282.283 211.719 278.117 207.908 273.825 204.271ZM274.382 73.5906C275.534 75.1455 276.835 76.5808 278.212 77.9393C279.632 79.3411 280.237 79.0314 281.937 78.3022C285.317 76.8517 285.253 75.1739 283.366 72.2654C278.989 65.5194 277.329 57.4857 272.699 50.8775C268.136 44.3668 261.499 39.1063 254.532 35.352C247.055 31.3232 238.953 30.0413 230.525 30.1615C226.218 30.2231 221.884 30.5199 217.604 31.0019C213.441 31.4703 209.737 32.8348 205.707 33.865C203.679 34.3834 201.586 34.8136 199.614 35.526C197.883 36.1508 196.327 37.1159 194.579 37.6997C190.751 38.9769 186.899 40.4044 183.446 42.4932C180.069 44.536 177.027 46.7145 173.961 49.2222C170.785 51.8193 168.027 54.8376 164.592 57.1177C161.466 59.1943 158.979 61.991 156.145 64.4243C153.182 66.9663 150.451 70.0815 148.229 73.2938C146.056 76.4349 145.229 80.4993 143.917 84.0417C142.389 88.1646 140.874 92.5722 140.298 96.9435C139.225 105.089 141.633 114.61 144.694 122.148C147.721 129.604 152.627 135.825 158.481 141.283C161.335 143.945 164.449 146.361 167.938 148.141C170.923 149.664 174.815 152.402 178.063 150.489C179.379 149.715 180.446 148.814 181.967 148.465C183.629 148.084 185.257 148.24 186.599 147.023C187.739 145.989 188.285 144.74 189.782 144.116C191.557 143.375 193.657 143.24 195.558 143.246C199.827 143.26 204.099 144.328 208.173 145.511C211.906 146.595 215.031 148.23 218.997 147.239C221.945 146.503 226.672 144.546 227.307 141.171C227.876 138.155 225.684 134.256 224.581 131.557C223.055 127.827 221.674 124.158 220.715 120.237C219.956 117.13 218.763 112.159 220.907 109.319C223.013 106.528 227.883 106.562 230.909 107.264C232.892 107.724 234.715 108.65 236.699 109.117C238.72 109.593 240.811 109.832 242.873 110.065C250.017 110.872 260.182 109.047 259.802 99.9295C259.463 91.8032 254.979 83.6572 257.605 75.521C258.675 72.2047 260.861 68.3693 264.501 67.494C267.388 66.7995 271.29 67.5275 273.838 69.0357C275.882 70.2462 277.907 72.7814 274.382 73.5906ZM130.906 109.888C123.704 111.291 118.942 118.872 117.622 125.595C117.024 128.642 116.812 132.269 117.969 135.217C119.302 138.615 123.071 140.033 126.397 140.746C130.198 141.561 133.567 141.243 136.58 138.611C137.905 137.453 139.028 136.105 139.98 134.632C140.953 133.125 142.307 132.028 141.328 130.344C138.902 126.172 136.831 122.074 135.233 117.484C134.52 115.436 133.886 113.435 133.413 111.326C133.037 109.651 132.855 108.629 130.906 109.888ZM193.982 155.397C192.588 156.737 190.987 157.805 189.189 158.525C187.215 159.315 186.617 158.936 186.714 161.215C186.823 163.732 186.841 165.747 185.692 168.089C185.154 169.185 183.168 170.664 183.543 171.898C184.082 173.668 189.598 175.458 191.208 176.076C195.058 177.558 199.551 177.588 203.185 175.495C207.406 173.064 207.78 168.657 206.19 164.392C206.02 163.937 205.403 163.168 205.555 162.671C205.833 161.76 206.98 161.892 207.638 162.239C209.067 162.995 209.665 165.291 209.972 166.724C210.794 170.552 209.284 174.699 206.415 177.336C204.957 178.676 203.134 179.572 201.274 180.217C200.218 180.584 199.111 180.874 197.996 180.986C197.095 181.076 195.957 180.793 195.097 181.049C193.581 181.5 193.513 183.367 193.134 184.733C192.457 187.172 192.175 189.813 192.086 192.337C191.942 196.42 192.429 201.622 194.78 205.083C200.267 213.158 210.878 215.961 219.163 220.117C223.567 222.326 227.65 225.102 231.571 228.069C231.959 228.362 232.538 228.936 233.003 229.165C234.575 229.937 233.202 229.656 234.208 229.146C234.983 228.753 235.646 227.899 236.447 227.455C238.29 226.43 240.361 225.877 242.236 224.908C246.596 222.657 250.453 219.862 254.323 216.88C258.288 213.824 262.304 211.034 265.921 207.555C267.446 206.089 269.163 204.88 270.711 203.476C272.269 202.062 270.274 201.475 268.955 200.434C264.463 196.891 260.027 193.236 255.231 190.105C253.63 189.06 252.219 187.652 250.55 186.728C248.807 185.764 247.772 186.628 246.399 187.854C244.898 189.194 243.468 190.507 241.797 191.654C239.591 193.169 237.027 193.898 234.809 195.339C236.233 196.828 239.705 197.326 240.208 199.58C240.719 201.865 237.312 203.648 235.72 204.531C232.908 206.089 229.806 207.035 226.673 207.711C224.066 208.273 220.2 207.427 218.111 209.392C217.515 208.134 216.957 207.476 217.937 206.273C218.916 205.071 220.662 204.864 222.044 204.402C225.777 203.153 229.453 201.489 233.065 199.929C232.585 198.809 231.387 198.042 230.474 197.312C229.17 196.271 228.075 195.116 227.013 193.821C224.988 191.35 223.172 188.714 221.244 186.171C220.407 185.068 219.644 183.966 218.117 184.577C216.769 185.116 215.453 186.515 214.157 187.239C211.226 188.877 208.663 190.45 205.437 191.492C204.137 191.912 198.815 193.108 200.231 189.859C200.65 188.896 202.053 188.499 202.916 188.078C204.513 187.3 206.103 186.506 207.641 185.617C210.8 183.791 213.586 181.431 216.542 179.307C219.802 176.964 223.118 174.69 226.179 172.086C223.134 170.071 219.755 168.596 216.605 166.753C213.421 164.89 210.214 163.206 206.921 161.552C204.299 160.234 201.635 158.829 199.244 157.126C198.294 156.449 195.024 153.635 193.982 155.397ZM289.753 89.863C289.352 89.9637 288.955 90.0779 288.562 90.2056C291.233 94.2825 288.285 99.3298 289.12 103.742C291.585 102.286 291.908 96.6227 295.651 97.6697C299.682 98.7974 297.676 103.753 298.897 106.587C300.802 104.924 303.026 106.478 303.812 108.451C304.663 110.589 303.483 112.562 303.88 114.678C304.291 116.867 305.515 115.431 306.194 114.14C307.059 112.494 307.816 110.269 307.497 108.387C307.109 106.097 305.57 103.968 304.616 101.889C303.669 99.8225 302.772 97.7139 301.4 95.8807C298.803 92.4092 294.293 89.2905 289.753 89.863ZM315.575 138.754C313.832 134.409 311.252 130.43 309.604 126.05C309.122 124.77 308.853 122.728 307.578 121.939C306.74 121.421 305.625 121.732 304.702 121.453C303.781 121.175 302.81 120.513 302.15 119.83C300.941 118.58 300.55 116.864 299.125 115.776C297.286 114.37 295.865 113.832 294.99 111.484C294.303 109.641 294.301 109.37 292.237 109.781C289.983 110.231 288.152 109.681 286.597 107.922C283.964 104.945 283.673 100.751 284.965 97.157C285.569 95.4765 286.621 93.5213 285.747 91.7617C284.936 90.127 282.965 88.9536 281.717 87.6507C278.561 84.3577 276.091 80.5038 273.131 77.0487C272.423 76.2221 271.699 75.3973 271.153 74.4496C270.806 73.8478 270.601 72.8125 269.798 72.6421C268.414 72.3488 266.483 74.7378 265.787 75.608C260.692 81.9758 264.337 90.6489 264.958 97.8278C265.273 101.484 265.983 105.867 264.36 109.309C262.83 112.552 258.959 114.172 255.695 115.075C251.294 116.293 246.567 116.239 242.089 115.5C239.743 115.112 237.492 114.451 235.271 113.613C233 112.755 230.637 111.28 228.321 112.836C225.333 114.845 226.256 118.875 226.912 121.813C227.985 126.611 229.857 131.087 231.513 135.696C232.904 139.568 234.03 144.425 231.106 147.889C228.185 151.349 223.341 153.514 218.833 153.335C209.486 152.962 200.953 146.002 191.402 148.849C193.196 149.59 195.093 150.026 196.847 150.874C198.964 151.898 200.923 153.258 202.978 154.397C206.923 156.582 210.881 158.736 214.737 161.078C218.22 163.193 221.514 165.511 224.838 167.855C228.981 170.776 231.163 167.541 233.821 164.385C239.623 157.498 245.146 150.204 250.418 142.905C255.001 136.559 259.255 129.934 262.569 122.845C263.755 120.308 265.752 116.005 269.222 116.506C272.302 116.95 274.099 120.662 275.692 122.934C276.803 122.139 277.756 121.075 279.256 121.513C280.501 121.876 281.361 123.151 281.912 124.238C282.291 124.986 282.549 127.505 283.182 127.885C283.632 128.154 285.354 127.575 286.121 127.752C288.747 128.358 289.587 131.729 289.56 134.069C289.523 137.294 288.174 140.521 287.068 143.508C284.589 150.203 280.343 155.435 275.662 160.726C270.911 166.094 265.937 170.96 260.579 175.725C259.256 176.9 257.947 178.089 256.658 179.301C255.6 180.295 253.926 181.329 253.099 182.496C251.567 184.656 255.664 185.637 257.188 186.427C263.747 189.829 269.791 194.308 275.567 198.876C281.524 203.587 287.514 208.316 293.238 213.308C298.837 218.191 304.126 223.395 310.022 227.936C316.08 232.601 322.427 236.909 328.652 241.348C334.884 245.791 340.947 250.466 347.17 254.915C353.253 259.263 359.782 262.99 366.179 266.85C369.526 268.87 372.89 270.86 376.252 272.854C378.971 274.466 381.922 276.971 385.144 277.175C388.049 277.359 390.803 278.426 392.539 275.273C393.856 272.879 393.311 269.586 392.157 267.26C390.749 264.422 388.546 261.812 386.776 259.186C384.742 256.165 382.853 253.058 380.844 250.022C378.918 247.111 376.778 244.424 374.629 241.681C372.451 238.9 370.798 235.765 368.857 232.82C364.708 226.525 360.441 220.344 356.507 213.907C347.485 199.146 339.405 183.908 331.684 168.44C331.003 167.077 315.131 138.997 315.575 138.754ZM302.872 229.507C307.721 246.245 304.925 263.266 303.931 280.294C303.428 288.903 303.352 297.566 303.129 306.188C303.02 310.378 303.028 314.572 303.202 318.761C303.29 320.869 303.444 322.969 303.594 325.072C303.727 326.932 303.227 328.989 303.462 330.783C303.763 333.082 308.333 333.533 306.929 336.483C305.987 338.462 302.689 338.764 300.922 339.599C301.707 340.507 302.936 341.867 304.247 341.953C305.427 342.029 306.338 341.007 307.397 340.621C308.336 340.278 309.628 339.944 310.221 341.04C310.842 342.186 309.542 343.46 309.027 344.349C310.776 344.687 311.986 343.644 313.563 343.739C315.223 343.84 315.298 345.471 316.389 346.415C317.637 347.494 319.815 347.727 321.353 348.181C323.142 348.709 324.94 349.364 326.569 350.281C329.482 351.92 331.984 355.016 333.06 358.185C334.176 361.47 332.434 364.313 329.839 366.328C328.872 367.079 327.487 367.952 326.204 367.547C324.739 367.084 324.51 365.893 322.724 365.982C321.12 366.061 319.598 366.701 317.986 366.783C315.616 366.903 313.248 366.472 310.876 366.563C301.302 366.93 291.728 367.012 282.17 366.093C279.698 365.855 277.274 365.66 274.836 365.583C272.94 365.522 272.782 364.11 272.461 362.338C271.685 358.057 273.401 353.843 272.551 349.683C272.607 349.958 271.266 349.244 271.104 349.108C270.119 348.28 269.789 347.103 269.496 345.881C268.715 342.625 268.723 339.308 268.964 335.987C269.514 328.451 270.918 320.985 270.803 313.408C270.745 309.59 270.86 305.78 270.861 301.963C270.862 298.456 271.18 294.996 271.21 291.514C271.275 283.88 272.079 276.331 272.304 268.705C270.712 270.251 269.869 272.406 268.858 274.335C267.615 276.707 266.228 279.054 264.71 281.262C261.575 285.819 257.369 289.529 253.011 292.891C244.696 299.309 235.662 304.278 225.474 307C214.446 309.946 203.292 311.935 191.922 313.053C189.292 313.311 186.632 313.451 183.995 313.195C182.269 313.028 179.462 311.635 177.822 312.342C175.958 313.145 175.583 315.077 173.138 314.535C172.205 314.328 171.529 313.706 170.713 313.287C169.511 312.669 169.464 313.095 168.317 313.174C167.038 313.262 166.271 312.624 165.157 313.652C164.21 314.525 164.302 315.137 165.167 315.954C166.382 317.103 168.327 317.296 169.543 318.495C170.726 319.662 170.514 321.096 168.686 321.113C166.847 321.131 165.212 319.823 163.415 319.653C163.798 324.963 165.398 330.895 163.624 336.105C162.801 338.521 161.035 340.078 158.402 340.062C153.995 340.034 150.13 335.985 147.476 332.832C146.009 331.088 144.82 329.13 143.404 327.344C141.955 325.518 140.402 323.681 139.573 321.473C138.691 319.123 138.948 316.766 139.442 314.354C140.052 311.368 140.619 308.353 141.357 305.396C142.787 299.662 145.665 294.427 147.118 288.711C147.667 286.548 147.66 284.01 149.047 282.155C150.515 280.191 152.8 280.065 155.065 280.191C157.87 280.346 160.672 280.656 163.461 280.973C165.223 281.173 169.083 282.442 170.516 281.36C171.01 280.988 171.011 280.013 171.588 279.676C172.144 279.352 173.043 279.585 173.651 279.63C176.663 279.853 179.701 280.124 182.719 280.212C193.936 280.54 205.772 278.794 215.787 273.59C220.434 271.175 223.974 267.373 227.71 263.782C231.383 260.251 234.584 256.451 235.572 251.325C236.475 246.645 236.133 241.048 234.634 236.519C233.175 232.106 227.994 229.433 224.223 227.258C218.994 224.241 213.442 221.74 207.809 219.574C206.914 219.231 205.827 218.793 204.844 218.969C203.638 219.184 202.828 220.228 201.731 220.688C200.427 221.236 198.827 221.239 197.451 221.559C196.117 221.868 194.817 222.295 193.457 222.499C189.178 223.144 183.163 222.629 179.627 219.899C173.845 215.437 177.338 209.122 179.196 203.691C177.232 203.625 175.597 204.083 173.722 203.244C171.855 202.408 170.395 200.927 169.544 199.073C167.995 195.698 168.89 191.821 169.346 188.302C169.553 186.711 169.789 185.133 170.397 183.638C170.867 182.481 171.64 181.378 171.926 180.154C172.24 178.806 171.833 178.728 170.707 178.083C168.971 177.089 167.722 175.946 166.66 174.202C164.579 170.785 164.527 167.056 166.232 163.462C166.922 162.007 168.569 160.008 168.381 158.309C168.22 156.847 166.564 155.709 165.588 154.752C162.576 151.796 159.374 149.068 156.033 146.49C154.472 145.285 152.753 144.191 151.334 142.822C150.294 141.819 149.238 139.638 147.817 139.11C146.394 138.583 145.446 140.17 144.455 141.021C142.909 142.346 141.429 143.872 139.745 145.022C136.724 147.083 132.979 146.698 129.569 146.039C126.006 145.351 122.701 144.139 119.664 142.14C118.457 141.346 117.047 139.733 115.561 139.603C113.974 139.466 112.249 141.041 111.115 141.987C108.154 144.457 107.264 148.294 105.539 151.612C103.613 155.317 102.795 159.163 103.319 163.329C103.791 167.077 105.236 169.908 107.386 172.936C107.831 173.562 108.872 174.745 108.111 175.437C107.18 176.285 105.273 174.585 104.648 174.036C98.4388 168.583 94.91 160.366 96.9255 152.14C98.0074 147.723 100.124 143.636 102.581 139.836C103.627 138.22 104.646 136.603 106.464 135.779C108.532 134.84 110.877 134.952 113.087 134.727C111.558 127.255 111.08 119.124 115.777 112.611C119.381 107.613 126.762 103.24 132.612 107.293C132.372 101.784 131.586 96.5525 133.054 91.1285C133.712 88.6976 134.613 86.3323 135.721 84.0701C136.806 81.853 138.305 79.9731 139.182 77.6652C142.641 68.5625 149.277 60.4311 156.366 53.8979C163.532 47.2939 170.562 39.2373 179.588 35.1057C189.005 30.7947 198.595 26.9208 208.805 24.962C219.402 22.9288 230.294 22.5114 240.969 24.4364C250.327 26.124 258.988 31.7983 266.069 37.9156C274.149 44.896 279.366 53.3114 283.492 63.0592C284.399 65.2004 285.273 67.36 286.385 69.4064C287.618 71.677 289.202 73.7886 290.11 76.2251C290.918 78.3979 291.055 80.7549 289.614 82.6963C288.601 84.0614 286.523 84.3696 285.637 85.6181C285.19 86.2477 285.235 86.8465 286.218 87.0342C287.233 87.2277 287.716 86.0973 288.446 85.6438C290.262 84.5146 292.826 85.4767 294.662 86.1179C299.017 87.6384 302.426 90.3691 305.032 94.1545C307.526 97.777 309.182 101.892 310.828 105.944C311.867 108.499 312.856 111.039 313.428 113.746C313.643 114.765 313.944 117.527 312.332 116.316C311.678 115.826 310.744 119.549 310.92 120.142C311.533 122.203 313.719 124.137 315.005 125.806C318.031 129.73 320.056 134.126 322.19 138.564C326.812 148.176 331.959 157.506 336.904 166.951C346.974 186.185 357.979 204.68 369.522 223.064C375.241 232.173 381.138 241.125 387.251 249.975C389.949 253.88 392.655 257.788 395.294 261.732C397.537 265.085 399.75 268.817 399.173 273.001C398.645 276.832 396.365 279.909 392.68 281.162C390.705 281.834 388.361 282.608 386.247 282.401C383.936 282.176 381.897 280.632 379.971 279.473C371.118 274.145 362.264 268.822 353.406 263.503C343.499 257.555 334.438 250.493 324.986 243.88C320.177 240.515 315.217 237.482 310.206 234.437C309.078 233.751 303.958 228.836 302.872 229.507Z" fill="black"/>
<path fill-rule="evenodd" clip-rule="evenodd" d="M217.091 246.44C214.671 249.998 212.127 253.342 208.72 256.042C205.132 258.886 201.379 261.19 197.373 263.397C190.307 267.289 180.836 270.735 172.63 268.971C170.296 268.469 166.562 266.43 168.591 263.518C169.611 262.055 171.798 262.437 173.347 262.517C175.842 262.647 178.024 262.789 180.414 261.951C184.806 260.41 189.229 258.957 193.518 257.143C197.673 255.386 201.316 252.976 205.127 250.609C208.702 248.388 211.428 245.731 214.568 243.047C215.428 242.312 216.907 241.026 217.721 242.455C218.308 243.488 217.413 245.43 217.091 246.44Z" fill="black"/>
<path fill-rule="evenodd" clip-rule="evenodd" d="M314.873 75.5379C314.602 77.0792 313.871 80.1454 311.699 79.7267C308.929 79.1925 310.294 73.7773 310.252 71.9388C310.068 63.9286 307.453 56.2261 303.58 49.2811C301.655 45.8284 299.283 42.6354 297.533 39.0839C297.193 38.3938 296.162 36.6823 296.911 35.9337C297.811 35.0346 299.536 36.3913 300.171 37.0329C302.623 39.5139 304.576 43.2334 306.469 46.1528C308.996 50.0504 311.229 54.1668 312.832 58.5371C314.767 63.8163 315.854 69.9388 314.873 75.5379Z" fill="black"/>
<path fill-rule="evenodd" clip-rule="evenodd" d="M320.055 49.9221C320.313 51.3112 321.579 55.0908 319.322 55.4259C316.762 55.806 315.967 49.5083 315.257 47.8399C314.882 46.9603 312.886 43.0866 313.926 42.2434C316.093 40.4878 319.541 48.8043 320.055 49.9221Z" fill="black"/>
<path fill-rule="evenodd" clip-rule="evenodd" d="M199.607 237.364C197.178 239.574 194.358 239.445 191.292 239.234C189.735 239.127 186.129 238.207 188.635 236.278C189.944 235.271 200.213 234.578 199.607 237.364Z" fill="black"/>
<path fill-rule="evenodd" clip-rule="evenodd" d="M388.889 277.835C389.061 277.492 390.519 275.845 390.833 276.511C391.13 277.139 389.273 277.816 388.889 277.835Z" fill="black"/>
<path fill-rule="evenodd" clip-rule="evenodd" d="M195.68 155.643C195.381 156.258 194.133 155.721 193.703 155.814C194.287 154.565 194.982 154.833 195.68 155.643Z" fill="black"/>
<path fill-rule="evenodd" clip-rule="evenodd" d="M289.566 90.3086C289.437 90.8019 289.307 91.2955 289.177 91.7891C288.978 91.4193 288.778 91.0497 288.578 90.6799C288.907 90.5565 289.237 90.4324 289.566 90.3086Z" fill="black"/>
<path fill-rule="evenodd" clip-rule="evenodd" d="M291.952 183.546C295.07 183.86 298.198 184.019 301.328 184.115C303.969 184.196 305.055 183.697 305.392 180.955C305.792 177.704 305.929 174.423 306.328 171.171C306.509 169.694 307.945 166.741 306.216 165.95C304.767 165.287 302.507 166.236 300.99 166.348C299.3 166.473 296.749 165.957 295.255 166.958C293.657 168.028 294.005 171.775 293.732 173.533C293.214 176.885 292.588 180.215 291.952 183.546ZM290.465 167.756C287.639 167.969 284.804 168.137 281.987 168.438C280.733 168.572 278.195 169.191 277.138 168.28C274.656 166.142 283.929 165.391 284.981 165.222C286.754 164.938 289.788 165.315 290.925 163.644C292.049 161.991 291.765 159.213 292.056 157.294C292.493 154.406 292.993 151.521 293.285 148.614C293.383 147.637 293.243 144.409 294.276 143.929C296.651 142.827 295.905 154.188 295.866 155.04C295.799 156.506 295.726 157.979 295.521 159.433C295.405 160.253 295 161.361 295.25 162.184C295.966 164.545 300.034 163.183 301.887 162.995C303.963 162.784 307.17 163.587 307.857 161.029C308.721 157.813 308.595 154.161 308.915 150.853C309.004 149.938 309.235 143.105 310.924 143.635C312.809 144.226 312.073 149.936 312.056 151.406C312.036 153.065 312.043 154.725 311.93 156.381C311.829 157.869 311.409 159.693 311.72 161.167C312.265 163.751 315.334 162.377 316.224 164.433C317.07 166.386 312.457 164.855 311.596 165.526C310.31 166.528 310.619 170.716 310.436 172.182C310.032 175.403 309.258 178.748 309.006 181.959C308.808 184.493 310.848 184.157 312.924 183.973C314.705 183.816 316.662 183.394 318.446 183.631C319.881 183.821 321.884 185.14 319.796 186.019C316.532 187.392 309.886 184.586 308.246 188.757C307.936 189.544 306.497 198.667 304.688 194.163C303.932 192.281 305.783 189.327 303.809 187.885C303.125 187.384 302.105 187.473 301.311 187.417C299.356 187.281 297.388 187.235 295.429 187.194C293.476 187.154 291.72 186.761 290.966 188.898C290.378 190.563 290.443 192.426 289.974 194.13C289.622 195.407 288.465 197.643 287.266 195.553C286.478 194.181 287.081 191.783 287.237 190.29C287.315 189.543 287.761 187.997 287.193 187.37C286.584 186.696 284.953 187.06 284.182 187.121C281.957 187.297 277.813 188.367 276.11 186.352C274.685 184.665 277.647 184.633 278.812 184.519C280.012 184.402 281.212 184.293 282.411 184.167C283.731 184.028 285.478 184.214 286.72 183.801C288.806 183.107 288.658 180.274 288.795 178.437C289.063 174.848 289.871 171.303 290.465 167.756Z" fill="black"/>
<path fill-rule="evenodd" clip-rule="evenodd" d="M327.121 175.421C326.953 177.493 326.728 179.817 326.058 181.786C325.551 183.275 324.527 183.727 324.178 181.831C323.957 180.63 325.427 173.86 327.121 175.421Z" fill="black"/>
<path fill-rule="evenodd" clip-rule="evenodd" d="M195.397 161.777C194.565 161.18 190.624 158.042 193.472 157.918C194.927 157.854 198.06 160.244 198.15 161.569C198.173 161.903 197.456 162.077 197.495 162.4C197.569 163.017 198.483 163.309 198.777 163.798C199.426 164.879 199.157 167.014 198.319 168.042C196.407 170.385 194.285 166.418 195.765 165.64C195.435 165.814 191.011 163.567 190.844 163.06C189.934 160.281 195.173 162.899 195.397 161.777Z" fill="black"/>
<path fill-rule="evenodd" clip-rule="evenodd" d="M202.343 172.715C201.332 172.747 199.302 172.677 198.545 171.956C197.138 170.617 199.883 170.439 200.686 169.815C201.812 168.941 202.033 166.097 203.8 167.857C205.552 169.602 204.011 171.632 202.343 172.715Z" fill="black"/>
<path fill-rule="evenodd" clip-rule="evenodd" d="M187.773 165.332C189.601 165.065 193.666 168.998 191.693 169.26C190.388 169.433 188.058 166.383 187.773 165.332Z" fill="black"/>
</g>
<defs>
<clipPath id="clip0_81_1605">
<rect width="506" height="379" fill="white"/>
</clipPath>
</defs>
</svg>
