<svg width="407" height="322" viewBox="0 0 407 322" fill="none" xmlns="http://www.w3.org/2000/svg">
<path fill-rule="evenodd" clip-rule="evenodd" d="M295.791 100.892C298.122 100.773 300.442 101.292 302.772 101.066C300.749 99.307 298.726 97.5489 296.702 95.7908C295.808 97.357 295.743 99.1387 295.791 100.892ZM240.502 64.7413C234.47 64.7677 227.112 67.791 222.921 72.2065C220.702 74.5466 218.867 77.6889 216.989 80.318C215.73 82.0819 214.5 83.7843 212.972 85.3344C210.742 87.5936 211.381 88.1101 213.892 89.8114C214.687 88.325 218.902 80.3784 220.668 80.7357C223.352 81.2793 218.168 89.6735 217.602 90.7192C215.925 93.8131 213.218 98.1349 214.434 101.398C216.039 105.705 213.712 108.16 211.691 111.831C213.813 111.892 214.022 111.066 214.754 109.259C215.693 106.938 216.719 104.998 218.705 103.393C220.244 102.15 222.76 101.626 223.483 100.126C224.377 98.2705 223.816 94.6072 223.889 92.5434C223.999 89.4075 224.007 81.994 227.47 80.6007C231.098 79.1408 237.622 80.5168 241.169 81.5981C240.726 78.8345 239.329 77.0293 239.348 73.9583C239.369 70.7437 240.256 67.8755 240.502 64.7413ZM194.162 116.028C197.318 115.031 200.309 113.981 203.555 113.301C206.952 112.59 207.179 111.777 209.095 108.869C210.546 106.666 212.307 104.948 211.896 102.249C211.632 100.518 210.683 99.6747 210.968 97.7281C211.145 96.5216 211.71 95.2041 212.117 94.0567C212.617 92.6491 213.654 91.0524 211.244 90.9829C209.914 90.9444 209.849 91.6448 208.948 92.8209C207.286 94.9933 205.374 96.9657 203.606 99.049C200.535 102.666 197.278 106.516 193.849 109.864C190.075 113.548 186.818 117.991 184.379 122.708C183.928 123.579 181.189 128.709 182.358 129.715C183.431 130.639 189.4 128.485 190.488 128.232C195.186 127.144 200.519 126.756 204.958 124.779C207.219 123.772 212.21 122.57 213.996 121.012C215.656 119.563 215.581 116.055 214.618 114.013C211.921 115.687 192.424 122.004 194.162 116.028ZM252.861 87.2362C256.009 84.3985 259.731 82.1221 263.618 80.4352C267.096 78.9265 271.415 77.2447 275.284 77.5067C280.104 77.8325 278.089 81.7067 278.072 85.0058C278.05 89.3833 276.127 95.6896 281.365 97.9608C283.075 91.8993 286.679 77.5659 295.314 85.5085C297.52 79.6803 305.39 77.7078 310.932 76.6374C309.927 73.6928 306.876 71.0275 304.762 68.8172C302.116 66.0524 300.028 62.812 297.377 60.0995C292.142 54.7429 282.656 56.4631 276.028 57.7984C273.815 58.2437 267.401 58.8033 266.329 60.4247C265.657 61.4416 266.032 63.926 265.534 65.1693C264.848 66.8827 263.675 68.4707 262.734 70.0531C259.3 75.8267 255.807 81.6378 249.931 84.9438L252.861 87.2362ZM272.075 118.341C268.967 119.531 266.68 121.522 263.923 123.198C260.579 125.23 256.659 127.133 253.659 129.643C252.561 130.562 251.944 132.147 250.429 132.25C249.111 132.34 247.102 130.812 245.933 130.278C243.973 129.38 242.101 128.019 240.131 127.219C238.512 126.561 237.795 126.695 236.394 125.416C235.609 130.083 221.314 125.721 218.316 125.65C215.542 125.584 211.736 125.912 209.154 127.025C206.694 128.085 204.77 130.418 202.665 132.008C199.778 134.188 197.024 136.392 194.898 139.41C191.983 143.547 196.382 142.376 199.315 142.126C206.011 141.555 212.525 143.147 218.98 144.682C224.75 146.055 230.448 147.702 235.971 149.927C239.078 151.179 242.347 152.33 245.269 153.957C246.809 154.816 249.307 156.916 251.074 156.311C252.695 155.756 254.31 151.12 255.293 149.268C257.201 145.673 259.209 142.139 261.179 138.58C264.901 131.857 268.587 125.189 272.075 118.341ZM233.821 207.326C235.737 206.228 238.86 206.524 240.979 206.064C243.372 205.544 245.78 204.697 248.062 203.814C250.374 202.92 252.558 202.005 254.67 200.886C255.636 200.375 256.924 199.871 257.816 199.162C258.536 198.589 258.798 197.526 259.461 197.008C261.192 195.653 261.7 196.503 261.932 193.891C262.184 191.053 260.589 189.446 258.603 187.322C256.824 185.422 254.515 183.779 252.28 182.442C251.292 181.851 250.236 181.185 249.228 180.621C247.702 179.766 245.657 178.345 244.856 180.18C246.524 180.605 246.891 182.73 245.386 183.493C244.56 183.913 243.309 183.297 242.377 183.743C240.938 184.431 239.554 186.352 238.322 187.386C234.28 190.782 230.414 192.055 225.122 192.328C214.067 192.897 202.489 191.639 191.646 190.004C188.855 189.583 186.069 190.039 183.252 189.938C180.512 189.841 177.654 189.242 174.96 188.781C169.771 187.891 164.301 187.159 159.192 185.85C153.014 184.267 146.815 182.22 141.014 179.568C135.45 177.024 129.161 172.821 122.912 172.497C125.579 175.102 129.575 176.106 132.783 177.822C135.405 179.224 139.505 180.124 141.161 182.435C142.24 183.938 142.78 186.7 143.595 188.463C144.496 190.415 145.327 192.397 146.161 194.377C146.999 196.37 147.871 198.363 148.551 200.416C148.972 201.689 149.154 204.329 150.149 205.2C151.736 206.589 157.047 207.205 159.186 207.667C163.178 208.531 167.733 208.416 171.806 208.476C173.489 208.5 175.185 208.73 176.793 208.761C179.052 208.804 178.837 208.414 178.804 206.457C178.786 205.282 178.809 203.146 180.384 204.113C181.457 204.773 180.719 207.693 180.52 208.731C189.51 209.624 198.889 210.073 207.837 209.775C216.636 209.481 225.13 208.348 233.821 207.326ZM274.42 186.734C276.006 175.368 277.939 163.812 280.102 152.592C282.289 141.255 284.918 130.021 287.875 118.726C285.922 118.26 283.969 117.794 282.015 117.328C281.943 119.708 281.136 121.775 280.793 124.144C280.318 127.414 279.411 130.589 278.868 133.848C277.836 140.043 275.924 146.104 274.24 152.145C272.523 158.304 271.95 164.649 270.373 170.838C269.073 175.938 268.408 181.554 267.683 186.797C265.922 199.514 263.413 212.257 261.503 224.981C259.713 236.91 259.533 249.082 259.636 261.123C259.699 268.475 260.823 275.805 260.764 283.166C260.75 284.985 260.903 286.799 260.998 288.616C261.065 289.898 260.375 293.451 260.96 294.525C261.331 295.204 262.922 295.831 263.485 296.775C264.376 298.269 264.564 300.054 265.996 301.184C267.156 296.514 266.607 290.352 266.354 285.586C266.108 280.995 266.585 276.25 266.679 271.588C266.862 262.443 267.347 253.432 267.817 244.282C268.332 234.248 269.797 223.97 271.228 214.011C272.529 204.956 273.397 195.74 274.42 186.734ZM231.962 44.1907C231.333 44.1321 230.704 44.074 230.075 44.0154C230.169 45.3381 229.889 47.48 230.824 48.17C231.532 48.6929 232.965 48.5211 233.823 48.6883C236.637 49.237 239.897 49.696 242.689 48.6963C243.775 48.3079 243.078 47.6995 244.572 47.9523C246.372 48.2574 245.714 48.5418 246.234 49.6621C246.634 50.5268 246.841 51.9983 247.295 53.0365C247.903 54.4258 249.136 56.9119 248.609 58.516C248.097 60.0753 246.186 60.5465 245.374 62.3127C244.769 63.6255 244.912 65.5342 244.598 66.9803C244.179 68.9091 243.65 70.8304 243.416 72.7948C243.122 75.2694 243.223 78.1732 246.296 78.557C249.147 78.9138 251.187 77.9991 253.099 75.9267C256.751 71.9703 260.922 66.3851 263.067 61.4083C263.318 60.8269 263.935 59.8564 263.849 59.2342C263.679 58.0029 263.605 59.2491 263.213 58.3942C262.84 57.5766 262.254 56.8349 261.91 55.9276C260.671 52.6682 259.793 49.2519 259.296 45.8017C259.071 44.2389 258.995 42.6951 259.034 41.1168C259.047 40.5779 259.371 38.9599 259.177 38.5911C258.98 38.217 257.953 38.0447 257.633 37.6735C257.039 36.9858 256.019 35.0438 255.361 34.529C254.552 33.8964 252.741 34.3974 252.412 33.1391C251.886 31.1253 264.331 27.8452 258.517 25.158C254.177 23.1517 247.519 33.2937 246.001 25.3131C245.738 23.9308 246.239 22.0543 245.631 20.7874C244.959 19.3872 243.131 18.8638 241.854 18.1824C240.225 17.3136 238.578 16.4208 236.995 15.4693C235.909 14.8172 234.344 13.0855 233.188 12.9269C233.643 15.2774 232.77 17.6072 232.756 19.9531C235.26 19.2769 236.983 19.2625 239.455 20.4651C240.632 21.0373 245.068 24.2853 242.821 25.8475C241 24.7736 239.052 23.8423 237.023 23.2108C236.223 22.9615 235.223 22.6225 234.372 22.6053C232.396 22.5656 232.674 22.7719 231.932 24.2588C231.216 25.6912 231.37 29.4269 229.8 30.3416C228.176 31.2873 229.429 29.9636 228.042 30.2692C227.251 30.4439 226.39 31.0305 225.666 31.362C226.657 32.4365 228.66 33.4172 229.317 34.6106C230.277 36.3503 229.944 39.9487 230.094 41.8522C231.351 41.4035 232.673 41.3851 233.947 41.0519C235.144 40.7382 236.804 39.3805 236.929 41.3765C237.068 43.6006 233.545 44.1907 231.962 44.1907ZM248.313 102.748C248.411 100.826 248.518 98.9048 248.733 96.991C248.877 95.7057 250.1 91.978 249.409 90.849C248.657 89.6212 246.138 89.5431 244.925 89.2483C242.601 88.6829 240.372 88.2199 238.01 87.8464C235.837 87.5034 233.79 87.431 231.601 87.3316C229.217 87.2242 228.626 86.5927 228.099 89.2144C227.684 91.2759 227.129 93.423 227.051 95.5339C226.979 97.515 227.578 99.2346 225.611 100.57C229.931 100.57 235.558 96.7313 239.501 100.164C245.141 105.072 235.326 106.486 232.738 107.57C234.89 108.613 238.084 109.432 239.096 111.816C240.233 114.487 238.584 115.623 236.06 115.836C236.297 116.866 237.206 117.535 237.477 118.773C237.873 120.588 236.587 119.987 238.228 121.391C240.388 123.239 244.834 124.475 247.483 125.653C248.104 125.93 248.732 126.189 249.366 126.432C250.359 127.314 251.091 127.146 251.565 125.928C252.924 125.07 254.133 123.155 255.339 122.041C258.021 119.562 260.981 117.387 264.168 115.597C262.847 115.052 261.267 116.285 259.999 115.685C258.974 115.199 259.36 114.316 258.747 113.655C258.993 112.792 258.733 112.477 257.967 112.708C257.585 112.749 257.229 112.684 256.899 112.515C256.258 111.722 255.97 111.462 255.928 110.238C255.883 108.939 256.637 108.48 256.926 107.44C257.866 106.801 257.845 106.172 256.862 105.556C256.458 104.897 256.237 104.182 256.201 103.41C256.013 100.545 258.634 99.3898 260.633 97.8741C257.054 97.4817 257.191 93.2932 259.667 91.4621C262.234 89.5637 267.668 90.3411 270.772 90.7691C271.417 90.8576 273.161 91.6884 273.814 91.1587C274.214 90.8341 273.931 88.0894 273.95 87.6051C273.992 86.5054 274.259 85.1943 274.084 84.1003C273.716 81.8096 274.495 82.9633 272.843 82.8995C268.91 82.7472 263.901 86.1733 260.441 87.7884C256.568 89.5965 254.079 89.8746 254.039 94.3572C254 98.602 252.807 102.831 252.287 107.008C252.059 108.833 251.897 118.31 248.551 114.812C247.254 113.456 248.085 111.37 248.181 109.697C248.312 107.394 248.235 105.057 248.313 102.748ZM31.954 244.836C33.8686 245.175 36.9871 244.078 39.0757 243.964C42.7281 243.763 46.4894 243.416 50.0676 242.658C52.8669 242.064 56.0568 241.542 57.5665 238.838C58.9161 236.421 59.3931 233.395 60.12 230.758C60.5059 229.358 61.5018 227.327 61.5018 225.879C61.5018 223.995 61.2472 224.367 59.279 223.336C56.7878 222.032 54.364 220.214 51.6769 219.474C50.8642 219.316 50.0509 219.161 49.237 219.008C48.184 218.399 47.5896 218.699 47.4519 219.906C46.4243 220.988 45.8218 222.981 44.9596 224.245C42.9937 227.129 40.6591 229.093 37.6092 230.756C32.121 233.747 27.0073 236.056 21.1292 238.012C17.8897 239.09 14.9026 240.602 11.7363 241.79C9.19957 242.742 5.69862 243.032 3.75001 245.151C1.5514 247.541 4.93081 248.411 6.80916 250.027C8.34824 251.351 8.37819 251.655 10.4835 251.012C12.0519 250.533 13.4424 249.617 14.9487 248.996C20.1079 246.87 26.3524 245.454 31.954 244.836ZM149.865 282.757C147.942 282.341 146.019 281.927 144.096 281.512C145.987 285.035 149.964 290.189 147.11 294.266C146.043 295.789 144.268 296.224 142.683 296.997C140.764 297.932 138.993 299.13 137.179 300.244C129.7 304.84 122.099 309.5 114.218 313.443C116.685 314.238 120.479 314.788 123.02 314.095C125.978 313.289 128.718 311.437 131.756 310.628C137.205 309.176 142.942 307.941 148.478 307.196C153.004 306.588 164.332 307.962 163.782 301.171C163.26 294.722 159.4 288.571 158.251 282.196C155.433 282.821 152.744 282.711 149.865 282.757ZM264.476 179.55C266.668 168.816 267.977 157.9 270.562 147.243C271.852 141.927 272.761 136.538 274.02 131.22C274.607 128.746 275.05 126.248 275.621 123.778C276.199 121.279 277.443 118.971 277.728 116.387C275.633 116.904 275.149 121.69 274.514 123.491C273.349 126.795 272.079 129.969 270.583 133.132C268.204 138.159 265.68 143.01 262.996 147.884C260.167 153.025 257.178 157.969 253.643 162.664C252.482 164.206 250.906 165.415 250.157 167.107C248.98 169.769 248.485 172.942 247.361 175.712C248.153 176.113 250.198 176.213 251.169 176.404C252.976 176.76 254.241 177.076 255.976 177.933C259.032 179.443 261.6 181.233 263.642 183.949C264.155 182.555 264.289 181.026 264.476 179.55ZM179.288 261.446C179.252 251.109 179.105 240.683 179.275 230.422C179.322 227.573 179.554 224.499 179.968 221.671C180.228 219.894 181.758 216.117 180.752 215.265C179.893 214.536 175.356 215.016 174.243 214.99C172.083 214.94 169.931 214.844 167.767 214.682C167.767 218.513 169.267 222.864 169.964 226.653C170.614 230.189 171.148 233.743 171.684 237.295C172.845 244.985 173.175 252.782 174.435 260.493C175.577 267.485 177.083 274.447 177.914 281.438C178.369 285.275 179.292 288.895 180.008 292.73C180.383 294.73 181.747 302.967 183.466 303.777C183.829 300.822 182.345 297.254 182.079 294.267C181.805 291.182 181.592 288.077 181.091 284.976C180.502 281.335 180.205 277.605 179.979 273.92C179.842 271.664 179.8 269.416 179.604 267.163C179.463 265.528 178.843 263.05 179.288 261.446ZM233.276 123.212C233.347 122.086 230.427 122.132 229.884 120.838C228.781 118.21 231.295 118.683 232.841 118.411C232.29 116.95 221.968 117.482 224.373 113.538C226.041 110.802 232.367 114.99 234.057 112.39C235.168 110.681 232.144 110.446 230.945 110.275C229.141 110.017 224.889 110.851 225.029 108.514C225.205 105.578 233.47 103.552 235.789 102.689C235.532 100.679 225.584 103.537 224.145 104.352C220.886 106.196 218.39 109.506 217.912 113.184C217.355 117.464 219.53 120.834 223.814 121.885C225.6 122.322 226.92 122.371 228.573 123.03C229.66 123.462 233.18 124.542 233.925 123.45C233.708 123.37 233.492 123.291 233.276 123.212ZM291.672 96.5923C291.837 94.7646 293.379 91.3242 291.602 90.1234C289.116 88.4428 288.086 91.2121 287.523 92.8755C286.834 94.9065 283.939 99.8781 286.471 101.144C287.059 101.438 289.851 101.096 290.343 100.901C291.715 101.258 292.157 100.746 291.672 99.3627V96.5923ZM231.005 244.184C230.849 239.189 233.09 233.184 234.36 228.291C235.8 222.748 236.559 217.095 238.084 211.612C236.387 211.816 234.675 211.983 232.998 212.322C230.711 212.786 230.67 212.713 230.834 214.952C231.079 218.314 230.758 221.611 230.584 224.972C230.236 231.702 231.085 238.543 230.52 245.23C231.024 245.357 231.185 245.009 231.005 244.184ZM294.337 113.272C299.832 114.111 305.099 115.85 310.1 118.186C312.857 119.473 315.893 120.857 318.973 121.371C322.396 121.943 326.025 121.674 329.521 121.895C330.753 121.973 333.992 122.57 335.193 121.847C336.383 121.13 336.29 119.916 336.346 118.469C336.49 114.746 334.801 111.101 333.283 107.762C331.981 104.896 330.996 102.708 328.975 100.244C326.379 97.0777 324.119 93.6615 321.688 90.3572C319.855 87.8665 318.003 85.4114 316.135 82.9236C314.799 81.1425 314.863 80.5295 312.848 80.7288C310.865 80.9253 308.868 82.0951 307 82.7151C304.227 83.6355 300.87 84.1405 298.341 85.612C296.706 86.5634 296.633 86.7387 296.652 88.3991C296.67 89.9458 297.17 91.8321 298.097 93.0421C300.023 95.554 303.216 96.8836 305.956 98.1367C307.541 98.8612 308.911 99.889 310.322 100.889C311.842 101.967 314.909 102.602 316.073 103.83C319.46 107.408 313.294 106.7 311.571 106.592C307.854 106.359 304.156 106.395 300.411 106.392C296.323 106.389 292.268 106.199 288.238 106.332C285.877 106.41 283.169 105.215 281.64 103.224C280.9 102.259 280.611 101.347 279.643 100.346C278.374 99.0358 277.27 97.6552 275.727 96.6411C273.201 94.9818 268.611 94.043 265.604 94.6623C266.681 94.8123 271.745 96.5325 269.516 98.6945C269.244 98.9577 265.987 99.1301 265.279 99.4547C264.001 100.04 262.391 100.891 261.642 102.128C263.823 101.763 271.916 101.34 267.788 105.518C266.774 106.544 263.865 107.567 266.341 108.657C266.909 108.908 268.047 108.553 268.779 108.779C269.867 109.115 270.757 110.014 271.776 110.494C274.668 111.855 278.653 112.694 281.671 112.396C285.843 111.983 290.192 112.726 294.337 113.272ZM183.682 239.149C183.824 245.151 183.607 251.187 183.735 257.216C183.873 263.655 184.7 269.964 185.095 276.338C185.449 282.05 186.222 287.654 186.85 293.339C187.211 296.613 187.627 299.745 188.183 302.994C188.703 306.035 188.792 308.715 185.148 309.533C178.183 311.097 177.1 301.097 175.754 296.884C173.745 290.596 172.456 283.995 171.46 277.477C169.607 265.337 167.142 253.366 166.18 241.123C165.588 233.585 164.729 226.123 164.242 218.591C164.146 217.115 164.523 214.841 163.225 214.184C162.443 213.789 160.292 213.786 159.305 213.5C156.558 212.702 154.023 211.528 151.343 210.309C153.245 220.236 153.874 230.114 155.301 240.128C156.058 245.441 157.507 250.947 158.763 256.177C160.064 261.597 160.353 267.432 161.854 272.733C162.515 275.07 163.075 276.022 162.116 278.42C160.938 281.364 161.719 282.068 163.196 284.96C165.911 290.279 167.984 296.556 167.524 302.553C167.148 307.451 163.44 310.014 158.846 311.336C153.1 312.988 147.083 312.793 141.302 314.669C136.266 316.304 131.149 317.512 126.258 319.67C124.286 320.539 122.412 321.572 120.222 321.732C117.219 321.949 115.193 320.21 112.357 319.848C110.584 319.622 107.988 320.466 106.966 318.611C106.156 317.141 107.073 313.933 108.09 312.749C110.945 309.423 116.663 306.525 120.513 304.562C124.951 302.3 129.246 299.469 133.358 296.55C135.85 294.779 138.392 293.081 140.883 291.308C142.53 290.134 143.156 290.127 142.988 288.262C142.854 286.775 142.182 285.333 142.064 283.811C141.975 282.644 142.384 281.054 141.832 280.293C141.426 279.732 139.9 279.336 139.301 278.911C137.108 277.359 136.61 275.44 135.614 273.081C133.352 267.721 130.753 262.512 128.569 257.11C123.879 245.51 121.017 233.313 117.129 221.477C113.157 209.384 109.606 196.689 107.418 184.143C104.491 185.032 101.728 188.966 99.397 190.912C96.2475 193.542 93.0207 196.085 89.9322 198.788C84.8697 203.217 79.7438 207.525 75.5603 212.83C73.5449 215.385 71.8946 218.135 70.0699 220.819C69.0158 222.37 68.0331 224.125 66.8915 225.601C66.7083 225.837 66.7031 226.324 66.5055 226.525C66.0707 226.968 65.2406 226.378 64.9619 226.67C63.2419 228.465 63.2644 233.561 62.7281 235.93C61.9897 239.194 61.1602 242.947 58.6062 245.196C54.6612 248.67 47.3857 249.209 42.3929 249.389C35.9854 249.621 29.7698 251.402 23.6907 253.316C20.855 254.208 18.0936 255.252 15.2476 256.119C13.6106 256.618 11.7432 257.613 9.99503 257.421C7.88686 257.191 6.22221 255.421 4.67795 254.105C2.20747 252 -0.079839 249.926 -0.000175869 246.473C0.0889299 242.817 2.07326 240.058 5.19923 238.243C11.2427 234.732 18.002 232.482 24.5161 230.056C27.0125 229.126 29.1494 228.097 31.5364 226.845C34.9089 225.076 38.7912 223.631 41.7835 221.295C42.6659 220.606 45.9082 218.494 46.1847 217.404C46.221 217.262 45.4106 215.599 45.4071 215.335C45.3991 214.657 45.8017 213.922 46.0494 213.341C47.608 209.685 50.2225 206.164 52.2212 202.716C55.8817 196.4 59.5561 190.051 63.8001 184.112C72.2627 172.27 81.769 160.675 92.0294 150.337C97.0314 145.298 101.354 139.581 106.426 134.612C108.436 132.643 110.557 131.04 113.033 129.762C115.794 128.338 118.892 128.059 122.056 127.624C129.723 126.571 136.126 128.834 143.324 130.803C150.129 132.665 156.941 134.235 163.784 136.174C171.3 138.304 178.737 140.346 186.229 142.667C190.232 143.907 194.349 144.668 198.371 145.858C200.308 146.43 207.629 150.018 209.243 148.839C204.157 146.458 198.947 144.287 193.505 142.85C191.903 142.427 190.879 142.895 190.938 141.059C190.971 140.057 192.099 138.705 192.505 137.881C193.477 135.907 194.578 133.978 195.53 131.999C192.08 132.976 182.807 136.359 180.208 132.862C177.488 129.202 179.759 122.025 181.464 118.441C185.914 109.085 193.484 101.277 200.86 94.2245C202.456 92.6997 205.895 90.7082 206.745 88.7663C207.004 88.1756 206.441 87.308 207.024 86.541C207.371 86.0848 208.764 85.7728 209.321 85.281C211.35 83.4896 212.968 79.7199 214.369 77.3711C215.837 74.9115 217.159 72.2478 219.004 70.041C222.02 66.4322 225.134 62.6068 230.02 61.7628C232.415 61.3491 234.96 61.5698 237.256 60.7441C240.033 59.7456 242.671 58.1724 245.475 57.1382C244.78 55.711 244.216 53.4416 242.866 53.2859C241.567 53.1353 239.661 54.25 238.173 54.2419C236.001 54.2298 234.147 53.8834 232.051 53.4703C229.731 53.0124 228.967 53.0957 228.121 50.5843C227.234 47.9534 227.458 44.8979 227.465 42.1654C227.468 40.8301 227.734 39.1725 227.62 37.862C227.449 35.8872 227.064 35.8114 225.513 34.5554C223.575 32.9863 221.185 30.9099 223.56 28.1836C224.842 26.7105 227.479 27.8561 228.615 26.2732C229.772 24.661 229.717 20.611 230.069 18.7173C226.501 20.4674 227.809 13.9249 227.809 12.3506C227.808 10.0599 226.27 5.94034 228.485 4.03454C229.514 3.14973 230.278 3.88171 231.455 3.37323C232.798 2.79293 233.643 1.27094 235.072 0.680876C237.911 -0.492363 240.81 0.920464 243.725 0.687196C247.069 0.420028 250.353 -0.0959209 253.715 0.439563C255.308 0.692367 255.979 1.29622 257.327 1.97305C258.623 2.62402 259.938 2.80213 261.346 3.22098C262.598 3.59386 263.697 3.78232 264.543 4.87167C265.212 5.7335 264.94 7.1831 265.615 7.926C266.282 8.65798 267.6 8.55169 268.395 9.42098C269.157 10.2552 269.613 11.6342 270.01 12.6724C270.545 14.0708 270.608 14.596 271.551 15.7152C272.373 16.692 273.557 17.4774 274.243 18.5914C275.859 21.2177 275.901 25.0155 275.384 27.9699C275.209 28.9759 273.748 31.5763 273.977 32.4324C274.194 33.2471 275.565 33.0328 276.185 33.5482C276.721 33.9935 277.193 35.9774 277.616 36.0987C278.529 36.3601 279.656 34.56 280.348 34.29C281.551 33.8206 282.055 33.3391 282.721 35.1081C283.215 36.421 282.527 38.2027 282.165 39.4558C281.704 41.0507 281.195 42.9715 279.973 44.1775C278.538 45.5955 277.389 44.8204 275.805 45.584C273.431 46.7285 274.132 50.3068 271.211 51.3295C268.427 52.3039 265.361 49.2381 263.256 47.8287C263.692 51.2502 265.333 54.547 264.545 58.0535C270.947 55.5507 277.278 51.9989 284.255 51.2163C287.812 50.817 291.406 50.3441 294.764 51.8179C298.695 53.5427 301.103 57.3474 303.764 60.5086C308.764 66.45 313.894 72.2249 318.694 78.3576C323.095 83.9831 326.807 90.5014 331.652 95.7689C336.565 101.111 340.272 109.777 339.734 117.174C339.686 117.842 339.168 119.358 339.249 120.078C339.312 120.63 339.814 121.329 339.806 121.774C339.779 123.27 339.283 124.132 337.854 124.963C335.375 126.403 331.682 127.132 328.881 127.489C325.159 127.965 320.601 128.016 316.878 127.508C313.038 126.984 309.662 124.84 306.131 123.543C303.033 122.406 299.922 121.696 296.667 120.97C294.872 120.57 292.884 119.461 291.775 120.534C290.756 121.52 290.544 126.578 290.307 127.923C287.732 142.502 284.671 156.587 281.961 171.091C278.889 187.531 276.788 203.965 274.652 220.545C272.71 235.616 272.075 250.858 271.641 265.915C271.434 273.098 271.404 280.203 271.447 287.392C271.472 291.418 273.489 304.855 267.509 305.369C263.995 305.672 261.183 300.644 260.241 297.903C258.827 293.783 258.09 289.347 257.864 285.019C257.408 276.259 256.809 267.491 256.455 258.727C256.072 249.232 256.559 239.562 257.342 230.098C258.129 220.571 260.113 211.182 260.721 201.641C258.896 204.24 258.312 204.728 255.272 205.86C252.09 207.046 249.03 208.447 245.82 209.552C244.728 209.928 243.023 210.164 242.128 210.779C240.476 211.914 241.562 210.626 241.034 212.836C240.471 215.197 240.365 218.031 240.215 220.457C239.512 231.842 236.351 243.145 234.893 254.47C234.541 257.204 235.043 268.811 230.328 265.153C226.696 262.336 226.768 253.487 226.251 249.342C225.564 243.818 225.947 238.137 226.056 232.579C226.179 226.248 226.286 219.609 227.8 213.428C225.091 212.965 221.324 214.225 218.598 214.437C216.238 214.62 213.885 214.737 211.538 214.866C205.94 215.173 200.175 215.417 194.482 215.308C193.446 215.288 186.676 214.342 185.811 215.104C185.53 215.352 185.444 218.758 185.392 219.174C185.193 220.739 184.923 222.302 184.721 223.859C184.078 228.834 183.498 234.176 183.682 239.149Z" fill="black"/>
<path fill-rule="evenodd" clip-rule="evenodd" d="M284.215 286.43C288.487 288.096 293.021 288.7 297.329 290.218C301.181 291.575 304.757 293.399 308.55 294.778C308.772 293.022 308.889 290.05 308.24 288.395C307.32 286.052 304.899 285.995 302.516 285.16C296.715 283.13 290.613 282.701 284.854 280.329C285.84 282.223 285.4 284.731 284.215 286.43ZM357.959 280.303C348.733 280.573 339.915 282.716 330.823 284.041C326.398 284.685 321.969 285.26 317.54 285.862C315.836 286.093 312.729 285.821 311.491 287.293C310.464 288.513 311.589 292.675 311.133 294.463C312.998 294.6 316.309 292.862 318.333 292.574C321.485 292.127 324.595 291.501 327.78 291.301C332.823 290.984 337.779 290.715 342.814 290.154C347.934 289.585 352.888 288.526 358.049 288.139C360.558 287.951 361.567 288.42 361.715 285.778C361.773 284.744 361.915 283.015 361.624 281.996C362.088 280.743 361.677 280.135 360.389 280.171C359.571 280.079 358.762 280.123 357.959 280.303ZM340.114 271.869C342.609 271.635 345.115 271.3 347.616 271.16C348.123 271.131 350.696 271.286 351.116 270.815C351.711 270.15 351.048 267.715 350.939 266.962C350.568 264.4 350.158 262.91 347.358 262.904C344.995 262.899 342.548 263.397 340.194 263.627C329.507 264.673 318.874 265.114 308.305 267.099C308.949 269.833 309.679 272.653 308.91 275.449C313.98 275.71 319.546 274.736 324.501 273.737C329.565 272.717 334.939 272.21 340.114 271.869ZM323.2 246.129C319.382 246.147 315.346 247.825 311.579 247.451C311.522 248.15 312.728 247.57 313.061 248.224C313.773 248.226 314.02 248.457 313.803 248.92C313.816 249.236 313.655 249.421 313.318 249.474C313.151 249.489 312.985 249.503 312.82 249.517C312.091 249.541 311.972 250.031 312.462 250.989C312.252 252.177 312.567 253.685 312.613 254.876C319.384 253.957 325.962 253.001 332.781 252.59C335.999 252.397 339.216 252.397 342.431 252.133C345.969 251.842 349.83 252.466 353.288 251.805C355.137 251.451 354.943 251.476 354.809 249.077C354.726 247.62 354.757 245.889 353.568 244.826C351.582 243.05 347.059 244.077 344.684 244.139C337.531 244.328 330.257 244.991 323.2 246.129ZM327.108 280.389C337.337 279.462 347.488 277.432 357.775 277.432C357.048 276.707 355.463 276.52 354.558 276.124C353.526 275.673 352.552 274.713 351.544 274.319C349.519 273.528 347.46 274.627 345.381 275.102C340.366 276.247 335.221 276.287 330.198 277.411C325.006 278.572 319.745 279.643 314.457 280.234C311.939 280.515 309.237 281.085 306.749 280.421C306.547 280.277 306.344 280.133 306.142 279.989C305.925 279.065 305.321 278.818 304.331 279.249C303.073 279.01 301.472 279.318 300.206 279.35C300.154 279.855 304.831 281.437 305.723 281.829C307.872 282.773 309.329 283.465 311.624 283.06C316.792 282.149 321.875 281.062 327.108 280.389ZM291.127 250.548C291.527 252.103 293.205 251.396 294.65 251.567C296.59 251.796 298.519 252.464 300.398 252.967C303.81 253.882 307.222 254.784 310.62 255.752C310.486 254.382 310.789 251.266 310.064 250.051C309.303 248.778 305.696 248.22 304.017 247.831C299.783 246.854 295.26 247.41 290.959 247.616C291.035 248.592 291.091 249.569 291.127 250.548ZM331.797 260.276C335.814 259.936 339.835 259.673 343.864 259.531C348.47 259.37 345.122 258.636 345.025 255.833C338.971 256.796 332.864 256.987 326.829 257.81C321.829 258.493 315.873 260.277 310.773 259.319C308.368 258.867 305.912 258.693 303.353 258.438C300.939 258.197 298.661 257.074 296.277 256.796C293.6 256.483 290.865 257.984 288.202 258.381C287.074 258.549 286.811 259.313 286.278 257.957C285.726 256.551 287.309 255.402 287.932 254.561C288.66 253.579 288.358 255.174 288.762 253.64C288.875 253.21 288.568 252.13 288.512 251.667C288.369 250.496 288.001 249.226 287.943 248.058C287.89 246.985 287.881 245.347 289.048 244.721C289.761 244.339 290.266 244.896 290.887 244.788C295.735 243.947 301.437 243.878 306.354 244.69C311.683 245.57 316.271 243.24 321.524 242.295C327.687 241.187 333.914 241.021 340.13 240.553C345.445 240.153 355.156 238.077 357.181 244.851C357.754 246.771 358.59 252.055 357.047 253.688C355.023 255.833 350.336 255.148 347.718 255.706C348.11 256.817 349.276 257.573 348.873 258.896C352.541 259.069 353.189 262.526 353.764 265.754C354.358 269.094 353.198 270.421 356.397 272.16C360.854 274.583 365.576 277.031 365.489 282.803C365.445 285.705 365.12 290.081 362.134 291.587C359.213 293.06 354.456 292.811 351.236 293.345C345.002 294.381 338.746 295.597 332.473 296.219C325.795 296.881 319.005 297.425 312.315 297.721C308.67 297.883 305.521 298.432 302.001 297.208C298.54 296.005 295.154 295.126 291.583 294.233C288.057 293.352 277.265 292.164 280.41 286.148C280.913 285.186 282.633 284.42 282.911 283.51C283.359 282.042 281.845 280.896 281.909 279.569C282.024 277.142 284.769 276.837 286.664 276.837C283.416 274.81 287.766 272.409 287.74 270.688C287.695 267.656 283.915 265.688 283.701 263.145C283.181 256.959 302.848 263.4 305.875 264.739C303.545 268.186 292.736 265.203 289.516 264.68C289.956 265.831 290.375 266.866 290.502 268.045C290.605 269.005 290.238 270.103 290.574 271.069C291.106 272.598 291.087 272.305 292.968 272.722C294.36 273.03 295.736 273.386 297.123 273.713C299.253 274.214 302.604 275.56 304.715 275.487C306.567 275.422 306.201 275.995 306.54 273.943C306.723 272.84 306.412 271.668 306.225 270.588C305.837 268.323 305.268 266.181 307.249 264.556C309.139 263.007 313.122 262.269 315.439 261.723C320.583 260.51 326.519 260.213 331.797 260.276Z" fill="black"/>
<path fill-rule="evenodd" clip-rule="evenodd" d="M356.273 221.631C350.686 220.697 345.011 220.467 339.359 220.75C339.665 222.146 339.971 223.541 340.278 224.936C345.573 223.575 350.945 222.778 356.273 221.631ZM310.849 232.457C308.609 232.293 310.167 233.293 310.721 234.756C311.401 236.554 311.255 238.827 311.411 240.719C317.966 238.225 325.592 236.765 332.561 235.926C335.866 235.528 339.219 235.414 342.542 235.244C343.524 235.193 347.072 235.604 347.791 234.944C348.325 234.454 347.95 231.748 347.437 231.151C344.648 227.907 333.865 230.708 329.965 230.999C323.569 231.475 317.29 232.616 310.849 232.457ZM320.159 223.762C325.962 224.319 331.566 224.266 337.371 225.133C336.931 221.452 337.457 220.512 333.271 220.317C329.542 220.143 325.824 220.003 322.112 220.004C313.764 220.009 305.435 219.85 297.078 219.85V223.591C304.807 222.801 312.414 224.228 320.159 223.762ZM292.25 237.52C295.913 237.505 299.374 238.884 303.038 239.241C305.23 239.455 304.541 239.727 306.062 240.825C308.431 242.536 309.114 241.625 308.817 239.3C307.81 231.434 297.83 233.198 292.08 232.761C292.458 234.636 291.589 236.227 290.309 237.52H292.25ZM331.841 227.422C326.573 227.508 321.298 227.806 316.066 227.697C313.724 227.648 310.691 227.185 308.396 227.584C306.714 227.875 305.308 228.73 303.464 229.048C306.173 230.503 307.546 229.52 310.394 229.188C313.239 228.858 316.126 228.864 318.983 228.692C323.675 228.408 328.676 227.287 333.298 227.592C333.382 226.942 332.897 226.885 331.841 227.422ZM290.054 244.457C287.637 244.452 290.963 241.708 291.399 241.436C288.723 241.436 288.075 239.835 288.85 237.261C289.581 234.838 290.122 235.58 288.283 233.561C286.9 232.041 286.69 230.922 288.321 229.223C289.981 227.494 293.343 227.983 294.814 226.556C297.318 224.128 294.086 219.291 297.556 217.43C299.901 216.173 303.681 216.329 306.271 216.063C308.773 215.807 311.364 215.757 313.883 215.723C319.375 215.648 325.079 216.567 330.547 217.073C332.54 217.257 334.781 218.06 336.745 218.062C338.747 218.064 340.845 217.619 342.913 217.67C345.317 217.731 347.633 217.554 350.112 217.947C352.011 218.249 356.446 218.408 357.898 219.817C362.736 224.512 351.264 226.669 349.29 227.196C351.299 229.392 351.215 232.295 350.913 235.06C351.869 235.06 353.517 234.645 354.012 235.715C354.627 237.044 352.352 237.389 351.814 237.544C348.718 238.436 345.096 238.191 341.907 238.515C335.53 239.163 329.23 239.537 322.919 240.742C319.844 241.33 316.787 242.057 313.714 242.629C313.183 242.728 312.649 242.807 312.114 242.867C311.291 242.796 311.025 243.311 311.315 244.414C310.462 244.83 307.282 243.794 306.298 243.635C300.668 242.724 295.632 243.102 290.054 244.457Z" fill="black"/>
<path fill-rule="evenodd" clip-rule="evenodd" d="M403.74 299.01C400.109 301.862 396.734 304.553 392.801 307.03C395.581 306.944 404.826 302.52 403.74 299.01ZM402.322 294.363C400.34 292.664 398.372 292.838 395.918 292.322C393.659 291.848 391.464 291.031 389.21 290.487C387.441 290.061 385.69 289.484 383.927 289.081C381.437 288.512 381.192 289.138 378.902 290.44C370.784 295.057 361.698 298.233 353.147 301.98C355.658 304.186 361.306 304.281 364.444 304.985C366.735 305.498 368.915 306.199 371.11 307.012C373.153 307.769 376.445 309.51 378.6 309.568C380.419 309.617 381.898 307.831 383.464 306.868C385.524 305.602 387.575 304.359 389.651 303.124C394.045 300.512 398.153 297.311 402.322 294.363ZM365.631 313.065C364.694 312.165 361.873 312.205 360.698 311.93C358.383 311.39 356.102 310.829 353.756 310.424C349.95 309.767 343.936 309.473 343.523 304.545C343.179 300.449 348.137 299.478 351.038 298.09C355.399 296.003 359.849 294.077 364.322 292.236C368.515 290.511 372.77 289.052 377.039 287.561C377.872 287.27 378.548 287.31 379.227 286.645C379.764 286.12 379.598 285.101 380.186 284.553C381.532 283.297 383.278 283.958 384.895 284.28C388.568 285.011 392.381 285.971 395.883 287.327C399.522 288.736 402.776 289.03 403.65 293.147C405.511 292.275 406.91 292.149 406.688 294.709C406.623 295.461 406.075 296.279 405.944 297.054C405.75 298.198 406.089 299.403 405.898 300.55C405.201 304.718 399.569 307.806 396.078 309.443C391.774 311.461 386.221 314.443 381.416 314.837C376.295 315.257 370.715 313.25 365.631 313.065Z" fill="black"/>
<path fill-rule="evenodd" clip-rule="evenodd" d="M300.453 243.907C298.927 243.917 297.399 243.926 295.873 243.936C297.397 243.65 298.924 243.647 300.453 243.907Z" fill="black"/>
<path fill-rule="evenodd" clip-rule="evenodd" d="M211.142 82.7227C210.684 83.484 210.226 84.2454 209.768 85.0078C209.924 84.026 210.273 83.1847 211.142 82.7227Z" fill="black"/>
<path fill-rule="evenodd" clip-rule="evenodd" d="M300.453 265.752C301.371 265.76 302.288 265.767 303.201 265.776C302.282 265.768 301.368 265.76 300.453 265.752Z" fill="black"/>
<path fill-rule="evenodd" clip-rule="evenodd" d="M303.201 243.93C302.285 243.921 301.368 243.913 300.453 243.904C301.372 243.654 302.289 243.663 303.201 243.93Z" fill="black"/>
<path fill-rule="evenodd" clip-rule="evenodd" d="M339.652 114.258C339.626 113.343 339.6 112.429 339.574 111.516C339.601 112.431 339.626 113.344 339.652 114.258Z" fill="black"/>
<path fill-rule="evenodd" clip-rule="evenodd" d="M183.918 252.281C183.899 251.519 183.881 250.757 183.862 249.996C183.881 250.759 183.899 251.52 183.918 252.281Z" fill="black"/>
<path fill-rule="evenodd" clip-rule="evenodd" d="M208.852 215.032C209.464 215.033 210.076 215.033 210.684 215.034C210.07 215.034 209.461 215.033 208.852 215.032Z" fill="black"/>
<path fill-rule="evenodd" clip-rule="evenodd" d="M290.835 50.8763C290.071 50.9316 289.308 50.9864 288.545 51.0417C289.309 50.9864 290.072 50.9316 290.835 50.8763Z" fill="black"/>
<path fill-rule="evenodd" clip-rule="evenodd" d="M271.404 274.219C271.381 273.608 271.357 272.998 271.335 272.391C271.358 273.001 271.381 273.611 271.404 274.219Z" fill="black"/>
<path fill-rule="evenodd" clip-rule="evenodd" d="M272.31 250.91C272.294 250.3 272.277 249.69 272.261 249.082C272.278 249.692 272.294 250.301 272.31 250.91Z" fill="black"/>
<path fill-rule="evenodd" clip-rule="evenodd" d="M256.68 261.422C256.702 262.032 256.725 262.642 256.746 263.25C256.724 262.639 256.702 262.031 256.68 261.422Z" fill="black"/>
<path fill-rule="evenodd" clip-rule="evenodd" d="M212.516 214.586C212.975 214.579 213.435 214.573 213.89 214.567C213.429 214.573 212.972 214.579 212.516 214.586Z" fill="black"/>
<path fill-rule="evenodd" clip-rule="evenodd" d="M345.338 238.371C345.797 238.352 346.256 238.332 346.712 238.312C346.251 238.332 345.794 238.352 345.338 238.371Z" fill="black"/>
<path fill-rule="evenodd" clip-rule="evenodd" d="M257.59 276.047C257.616 276.657 257.642 277.268 257.669 277.875C257.642 277.263 257.616 276.655 257.59 276.047Z" fill="black"/>
<path fill-rule="evenodd" clip-rule="evenodd" d="M306.682 272.848C306.652 273.458 306.621 274.068 306.59 274.676C306.621 274.065 306.652 273.456 306.682 272.848Z" fill="black"/>
<path fill-rule="evenodd" clip-rule="evenodd" d="M253.894 0.524099C253.247 0.441834 252.6 0.360254 251.952 0.277988C252.594 0.426066 253.297 -0.123057 253.894 0.524099Z" fill="black"/>
<path fill-rule="evenodd" clip-rule="evenodd" d="M226.053 234.914C226.036 235.524 226.018 236.134 226 236.742C226.017 236.131 226.035 235.522 226.053 234.914Z" fill="black"/>
<path fill-rule="evenodd" clip-rule="evenodd" d="M186.685 290.672C186.654 290.062 186.622 289.452 186.591 288.844C186.623 289.454 186.654 290.063 186.685 290.672Z" fill="black"/>
<path fill-rule="evenodd" clip-rule="evenodd" d="M334.804 239.27C335.264 239.26 335.723 239.25 336.178 239.242C335.717 239.252 335.26 239.261 334.804 239.27Z" fill="black"/>
<path fill-rule="evenodd" clip-rule="evenodd" d="M179.305 128.426C179.309 129.036 179.312 129.647 179.315 130.254C179.311 129.643 179.308 129.034 179.305 128.426Z" fill="black"/>
<path fill-rule="evenodd" clip-rule="evenodd" d="M169.696 265.535C169.694 266.145 169.691 266.756 169.688 267.363C169.69 266.752 169.693 266.143 169.696 265.535Z" fill="black"/>
<path fill-rule="evenodd" clip-rule="evenodd" d="M283.847 261.879C283.831 262.489 283.814 263.1 283.797 263.707C283.546 263.08 283.574 262.473 283.847 261.879Z" fill="black"/>
<path fill-rule="evenodd" clip-rule="evenodd" d="M271.835 259.137C271.83 258.527 271.825 257.917 271.82 257.309C271.825 257.92 271.83 258.528 271.835 259.137Z" fill="black"/>
<path fill-rule="evenodd" clip-rule="evenodd" d="M365.49 313.276C365.95 313.288 366.41 313.301 366.864 313.314C366.403 313.302 365.946 313.289 365.49 313.276Z" fill="black"/>
<path fill-rule="evenodd" clip-rule="evenodd" d="M349.002 255.26C349.308 255.254 349.615 255.249 349.918 255.244C349.61 255.249 349.306 255.254 349.002 255.26Z" fill="black"/>
<path fill-rule="evenodd" clip-rule="evenodd" d="M337.552 256.624C337.859 256.623 338.165 256.623 338.468 256.622C338.161 256.623 337.856 256.624 337.552 256.624Z" fill="black"/>
<path fill-rule="evenodd" clip-rule="evenodd" d="M159.185 259.594C159.167 259.137 159.148 258.679 159.13 258.223C159.149 258.68 159.167 259.138 159.185 259.594Z" fill="black"/>
<path fill-rule="evenodd" clip-rule="evenodd" d="M346.712 259.247C346.314 259.649 345.802 259.411 345.338 259.437C345.796 259.374 346.254 259.31 346.712 259.247Z" fill="black"/>
<path fill-rule="evenodd" clip-rule="evenodd" d="M292.209 244.624C291.604 244.91 290.993 244.949 290.377 244.644C290.988 244.638 291.599 244.631 292.209 244.624Z" fill="black"/>
<path fill-rule="evenodd" clip-rule="evenodd" d="M332.056 260.287C331.445 260.282 330.834 260.277 330.224 260.272C330.835 260.277 331.445 260.282 332.056 260.287Z" fill="black"/>
<path fill-rule="evenodd" clip-rule="evenodd" d="M166.504 242.227C166.492 242.685 166.48 243.142 166.468 243.598C166.479 243.139 166.492 242.682 166.504 242.227Z" fill="black"/>
<path fill-rule="evenodd" clip-rule="evenodd" d="M271.792 266.906C271.816 266.448 271.84 265.99 271.863 265.535C271.84 265.994 271.816 266.45 271.792 266.906Z" fill="black"/>
<path fill-rule="evenodd" clip-rule="evenodd" d="M334.804 240.55C334.193 240.601 333.582 240.653 332.972 240.704C333.583 240.653 334.193 240.601 334.804 240.55Z" fill="black"/>
<path fill-rule="evenodd" clip-rule="evenodd" d="M183.909 239.027C183.897 238.569 183.884 238.112 183.871 237.656C183.884 238.115 183.897 238.571 183.909 239.027Z" fill="black"/>
<path fill-rule="evenodd" clip-rule="evenodd" d="M260.431 203.836C260.395 204.294 260.359 204.751 260.323 205.207C260.36 204.749 260.396 204.293 260.431 203.836Z" fill="black"/>
<path fill-rule="evenodd" clip-rule="evenodd" d="M343.964 217.666C343.352 217.982 342.742 217.942 342.132 217.663C342.742 217.664 343.353 217.665 343.964 217.666Z" fill="black"/>
<path fill-rule="evenodd" clip-rule="evenodd" d="M271.41 281.074C271.383 280.616 271.356 280.159 271.329 279.703C271.356 280.162 271.383 280.618 271.41 281.074Z" fill="black"/>
<path fill-rule="evenodd" clip-rule="evenodd" d="M271.399 284.73C271.379 284.273 271.36 283.816 271.341 283.359C271.361 283.817 271.38 284.274 271.399 284.73Z" fill="black"/>
<path fill-rule="evenodd" clip-rule="evenodd" d="M184.797 224.402C184.803 223.945 184.809 223.486 184.816 223.031C184.809 223.49 184.803 223.946 184.797 224.402Z" fill="black"/>
<path fill-rule="evenodd" clip-rule="evenodd" d="M315.109 297.311C315.416 297.303 315.722 297.294 316.025 297.286C315.717 297.295 315.413 297.303 315.109 297.311Z" fill="black"/>
<path fill-rule="evenodd" clip-rule="evenodd" d="M167.439 301.184C167.414 300.726 167.389 300.268 167.365 299.813C167.39 300.27 167.414 300.727 167.439 301.184Z" fill="black"/>
<path fill-rule="evenodd" clip-rule="evenodd" d="M266.561 305.059C266.867 305.065 267.174 305.071 267.477 305.078C267.169 305.072 266.865 305.065 266.561 305.059Z" fill="black"/>
<path fill-rule="evenodd" clip-rule="evenodd" d="M266.751 265.992C266.777 264.621 266.802 263.249 266.828 261.879C266.802 263.251 266.777 264.621 266.751 265.992Z" fill="black"/>
<path fill-rule="evenodd" clip-rule="evenodd" d="M231.041 215.719C231.057 216.786 231.072 217.853 231.089 218.918C231.073 217.85 231.057 216.784 231.041 215.719Z" fill="black"/>
<path fill-rule="evenodd" clip-rule="evenodd" d="M152.059 282.66C151.294 282.669 150.529 282.678 149.769 282.688C150.535 282.679 151.297 282.669 152.059 282.66Z" fill="black"/>
<path fill-rule="evenodd" clip-rule="evenodd" d="M214.806 191.742C214.04 191.73 213.275 191.718 212.516 191.707C213.283 191.719 214.045 191.731 214.806 191.742Z" fill="black"/>
<path fill-rule="evenodd" clip-rule="evenodd" d="M195.111 209.55C195.875 209.549 196.639 209.549 197.401 209.548C196.638 209.548 195.875 209.549 195.111 209.55Z" fill="black"/>
<path fill-rule="evenodd" clip-rule="evenodd" d="M205.188 191.253C204.575 191.263 203.962 191.273 203.355 191.283C203.97 191.273 204.579 191.263 205.188 191.253Z" fill="black"/>
<path fill-rule="evenodd" clip-rule="evenodd" d="M155.723 282.679C155.11 282.675 154.498 282.672 153.891 282.669C154.505 282.673 155.114 282.675 155.723 282.679Z" fill="black"/>
<path fill-rule="evenodd" clip-rule="evenodd" d="M238.164 49.2102C238.927 49.1571 239.691 49.1046 240.454 49.0516C239.691 49.1046 238.927 49.1571 238.164 49.2102Z" fill="black"/>
<path fill-rule="evenodd" clip-rule="evenodd" d="M248.427 102.832C248.455 102.07 248.483 101.308 248.512 100.547C248.483 101.309 248.455 102.071 248.427 102.832Z" fill="black"/>
<path fill-rule="evenodd" clip-rule="evenodd" d="M229.92 109.916C229.46 109.916 229.001 109.916 228.546 109.916C229.007 109.916 229.463 109.916 229.92 109.916Z" fill="black"/>
<path fill-rule="evenodd" clip-rule="evenodd" d="M190.989 189.889C190.53 189.894 190.07 189.899 189.615 189.904C190.076 189.899 190.533 189.894 190.989 189.889Z" fill="black"/>
<path fill-rule="evenodd" clip-rule="evenodd" d="M180.455 208.561C181.066 208.61 181.677 208.66 182.287 208.709C181.676 208.66 181.066 208.61 180.455 208.561Z" fill="black"/>
<path fill-rule="evenodd" clip-rule="evenodd" d="M179.296 231.715C179.305 231.105 179.315 230.495 179.325 229.887C179.315 230.497 179.305 231.106 179.296 231.715Z" fill="black"/>
<path fill-rule="evenodd" clip-rule="evenodd" d="M231.752 207.353C232.362 207.293 232.974 207.234 233.584 207.174C232.973 207.234 232.362 207.293 231.752 207.353Z" fill="black"/>
<path fill-rule="evenodd" clip-rule="evenodd" d="M273.605 196.523C273.642 195.914 273.678 195.303 273.714 194.695C273.678 195.306 273.641 195.915 273.605 196.523Z" fill="black"/>
<path fill-rule="evenodd" clip-rule="evenodd" d="M219.386 192.188C218.926 192.184 218.467 192.179 218.012 192.175C218.473 192.179 218.93 192.184 219.386 192.188Z" fill="black"/>
<path fill-rule="evenodd" clip-rule="evenodd" d="M179.344 265.992C179.321 265.534 179.298 265.077 179.276 264.621C179.298 265.079 179.321 265.536 179.344 265.992Z" fill="black"/>
<path fill-rule="evenodd" clip-rule="evenodd" d="M230.695 242.684C231.696 245.16 231.134 243.407 231.16 243.978C230.307 244.093 230.152 243.661 230.695 242.684Z" fill="black"/>
<path fill-rule="evenodd" clip-rule="evenodd" d="M188.699 189.921C188.24 189.905 187.78 189.888 187.325 189.872C187.787 189.888 188.243 189.904 188.699 189.921Z" fill="black"/>
<path fill-rule="evenodd" clip-rule="evenodd" d="M282.318 143.508C282.347 142.898 282.377 142.289 282.405 141.68C282.376 142.29 282.347 142.899 282.318 143.508Z" fill="black"/>
<path fill-rule="evenodd" clip-rule="evenodd" d="M179.312 261.422C179.311 260.812 179.309 260.203 179.308 259.594C179.309 260.205 179.31 260.813 179.312 261.422Z" fill="black"/>
<path fill-rule="evenodd" clip-rule="evenodd" d="M179.262 247.711C179.294 247.254 179.326 246.796 179.358 246.34C179.326 246.798 179.294 247.255 179.262 247.711Z" fill="black"/>
<path fill-rule="evenodd" clip-rule="evenodd" d="M274.512 187.84C274.554 187.382 274.597 186.925 274.64 186.469C274.597 186.927 274.554 187.384 274.512 187.84Z" fill="black"/>
<path fill-rule="evenodd" clip-rule="evenodd" d="M173.295 249.082C173.335 249.54 173.377 249.998 173.417 250.453C173.376 249.996 173.335 249.539 173.295 249.082Z" fill="black"/>
<path fill-rule="evenodd" clip-rule="evenodd" d="M172.372 245.426C172.417 245.883 172.462 246.341 172.508 246.797C172.462 246.338 172.417 245.882 172.372 245.426Z" fill="black"/>
<path fill-rule="evenodd" clip-rule="evenodd" d="M263.99 182.812C264.025 182.355 264.058 181.898 264.093 181.441C264.058 181.899 264.024 182.356 263.99 182.812Z" fill="black"/>
<path fill-rule="evenodd" clip-rule="evenodd" d="M30.2285 244.812C30.8388 244.764 31.4497 244.716 32.0605 244.668C31.4484 244.716 30.8381 244.764 30.2285 244.812Z" fill="black"/>
<path fill-rule="evenodd" clip-rule="evenodd" d="M259.946 255.938C259.928 256.396 259.91 256.854 259.893 257.309C259.911 256.849 259.928 256.394 259.946 255.938Z" fill="black"/>
<path fill-rule="evenodd" clip-rule="evenodd" d="M267.197 257.309C267.23 256.851 267.264 256.394 267.299 255.938C267.264 256.395 267.23 256.852 267.197 257.309Z" fill="black"/>
<path fill-rule="evenodd" clip-rule="evenodd" d="M264.427 180.984C264.475 180.527 264.524 180.07 264.572 179.613C264.524 180.071 264.475 180.528 264.427 180.984Z" fill="black"/>
<path fill-rule="evenodd" clip-rule="evenodd" d="M33.8926 244.373C34.5035 244.313 35.1144 244.253 35.7246 244.193C35.1144 244.253 34.5028 244.313 33.8926 244.373Z" fill="black"/>
<path fill-rule="evenodd" clip-rule="evenodd" d="M228.088 191.72C227.781 191.723 227.474 191.726 227.172 191.73C227.48 191.726 227.784 191.723 228.088 191.72Z" fill="black"/>
<path fill-rule="evenodd" clip-rule="evenodd" d="M179.312 243.598C179.311 243.14 179.309 242.682 179.308 242.227C179.309 242.685 179.311 243.141 179.312 243.598Z" fill="black"/>
<path fill-rule="evenodd" clip-rule="evenodd" d="M268.199 242.684C268.037 242.211 267.957 241.745 268.271 241.312C268.247 241.77 268.223 242.227 268.199 242.684Z" fill="black"/>
<path fill-rule="evenodd" clip-rule="evenodd" d="M260.397 234C260.384 234.457 260.37 234.915 260.358 235.371C260.371 234.913 260.384 234.456 260.397 234Z" fill="black"/>
<path fill-rule="evenodd" clip-rule="evenodd" d="M260.793 279.246C260.821 279.703 260.85 280.162 260.878 280.617C260.85 280.159 260.821 279.702 260.793 279.246Z" fill="black"/>
<path fill-rule="evenodd" clip-rule="evenodd" d="M294.499 113.018C294.958 113.083 295.416 113.148 295.873 113.213C295.415 113.147 294.957 113.083 294.499 113.018Z" fill="black"/>
<path fill-rule="evenodd" clip-rule="evenodd" d="M292.667 113.06C293.281 113.097 293.957 112.802 294.499 113.234L292.667 113.06Z" fill="black"/>
<path fill-rule="evenodd" clip-rule="evenodd" d="M214.348 209.553C214.958 209.551 215.57 209.547 216.18 209.544C215.569 209.547 214.958 209.551 214.348 209.553Z" fill="black"/>
<path fill-rule="evenodd" clip-rule="evenodd" d="M228.088 112.579L229.92 112.738C229.308 112.684 228.699 112.632 228.088 112.579Z" fill="black"/>
<path fill-rule="evenodd" clip-rule="evenodd" d="M197.859 209.429C198.471 209.432 199.081 209.435 199.691 209.438C199.078 209.732 198.468 209.761 197.859 209.429Z" fill="black"/>
<path fill-rule="evenodd" clip-rule="evenodd" d="M181.195 286.102C181.16 285.643 181.125 285.186 181.09 284.73C181.125 285.189 181.16 285.645 181.195 286.102Z" fill="black"/>
<path fill-rule="evenodd" clip-rule="evenodd" d="M248.001 113.344C248.008 112.886 248.015 112.429 248.021 111.973C248.015 112.431 248.008 112.888 248.001 113.344Z" fill="black"/>
<path fill-rule="evenodd" clip-rule="evenodd" d="M209.31 209.623C209.921 209.574 210.531 209.524 211.142 209.475C210.531 209.524 209.921 209.574 209.31 209.623Z" fill="black"/>
<path fill-rule="evenodd" clip-rule="evenodd" d="M261.278 290.215C261.288 290.672 261.299 291.13 261.309 291.586C261.299 291.127 261.288 290.671 261.278 290.215Z" fill="black"/>
<path fill-rule="evenodd" clip-rule="evenodd" d="M270.849 218.461C270.891 218.004 270.933 217.546 270.974 217.09C270.933 217.548 270.891 218.004 270.849 218.461Z" fill="black"/>
<path fill-rule="evenodd" clip-rule="evenodd" d="M291.927 96.4336C291.963 95.9758 291.998 95.5186 292.032 95.0625C291.998 95.5202 291.962 95.9769 291.927 96.4336Z" fill="black"/>
<path fill-rule="evenodd" clip-rule="evenodd" d="M248.456 57.1289C248.465 57.5863 248.473 58.0442 248.483 58.5C248.474 58.0415 248.465 57.5852 248.456 57.1289Z" fill="black"/>
<path fill-rule="evenodd" clip-rule="evenodd" d="M232.21 48.5977C232.821 48.6485 233.432 48.6997 234.042 48.7499C233.431 48.6992 232.821 48.6485 232.21 48.5977Z" fill="black"/>
<path fill-rule="evenodd" clip-rule="evenodd" d="M140.608 308.357C141.219 308.297 141.83 308.238 142.44 308.178C141.83 308.238 141.219 308.298 140.608 308.357Z" fill="black"/>
<path fill-rule="evenodd" clip-rule="evenodd" d="M233.126 44.104C232.819 44.1035 232.512 44.1031 232.21 44.1031C232.518 44.104 232.822 44.104 233.126 44.104Z" fill="black"/>
<path fill-rule="evenodd" clip-rule="evenodd" d="M120.456 314.31C121.067 313.995 121.677 314.085 122.288 314.312C121.677 314.311 121.066 314.31 120.456 314.31Z" fill="black"/>
<path fill-rule="evenodd" clip-rule="evenodd" d="M358.162 279.911C357.549 279.924 356.937 279.938 356.33 279.953C356.944 279.939 357.553 279.924 358.162 279.911Z" fill="black"/>
<path fill-rule="evenodd" clip-rule="evenodd" d="M349.002 270.846C349.765 270.788 350.529 270.73 351.292 270.672C350.58 271.119 349.765 270.788 349.002 270.846Z" fill="black"/>
<path fill-rule="evenodd" clip-rule="evenodd" d="M340.3 271.788C341.063 271.732 341.826 271.678 342.59 271.622C341.827 271.678 341.063 271.732 340.3 271.788Z" fill="black"/>
<path fill-rule="evenodd" clip-rule="evenodd" d="M330.682 280.004C331.292 279.956 331.903 279.907 332.514 279.859C331.903 279.907 331.292 279.956 330.682 280.004Z" fill="black"/>
<path fill-rule="evenodd" clip-rule="evenodd" d="M332.972 279.556C333.582 279.502 334.193 279.448 334.804 279.394C334.193 279.448 333.583 279.502 332.972 279.556Z" fill="black"/>
<path fill-rule="evenodd" clip-rule="evenodd" d="M336.178 263.931C335.718 263.935 335.259 263.938 334.804 263.94C335.265 263.936 335.721 263.934 336.178 263.931Z" fill="black"/>
<path fill-rule="evenodd" clip-rule="evenodd" d="M347.628 289.11C348.239 289.059 348.849 289.007 349.46 288.955C348.89 289.355 348.246 289.125 347.628 289.11Z" fill="black"/>
<path fill-rule="evenodd" clip-rule="evenodd" d="M327.934 245.198C327.474 245.198 327.014 245.197 326.56 245.197C327.021 245.197 327.477 245.198 327.934 245.198Z" fill="black"/>
<path fill-rule="evenodd" clip-rule="evenodd" d="M323.354 246.109C323.047 246.111 322.74 246.112 322.438 246.113C322.746 246.112 323.05 246.111 323.354 246.109Z" fill="black"/>
<path fill-rule="evenodd" clip-rule="evenodd" d="M312.361 247.383C312.207 247.758 311.398 247.71 311.447 247.324C311.752 247.344 312.056 247.363 312.361 247.383Z" fill="black"/>
<path fill-rule="evenodd" clip-rule="evenodd" d="M291.036 249.082C291.055 249.539 291.074 249.997 291.092 250.453C291.073 249.995 291.055 249.538 291.036 249.082Z" fill="black"/>
<path fill-rule="evenodd" clip-rule="evenodd" d="M353.582 251.505C354.04 251.497 354.498 251.489 354.956 251.482C354.504 251.804 354.045 251.759 353.582 251.505Z" fill="black"/>
<path fill-rule="evenodd" clip-rule="evenodd" d="M336.178 244.734C335.871 244.738 335.565 244.743 335.262 244.747C335.57 244.743 335.874 244.738 336.178 244.734Z" fill="black"/>
<path fill-rule="evenodd" clip-rule="evenodd" d="M324.27 273.618C324.88 273.561 325.491 273.505 326.102 273.448C325.491 273.505 324.88 273.562 324.27 273.618Z" fill="black"/>
<path fill-rule="evenodd" clip-rule="evenodd" d="M330.682 290.996C331.293 290.773 331.905 290.696 332.514 291.001C331.903 290.999 331.292 290.998 330.682 290.996Z" fill="black"/>
<path fill-rule="evenodd" clip-rule="evenodd" d="M329.711 227.998L328.85 227.701C329.918 227.688 330.987 227.675 332.056 227.662C332.058 227.662 329.834 228.008 329.711 227.998Z" fill="black"/>
<path fill-rule="evenodd" clip-rule="evenodd" d="M321.521 220.061C320.756 220.061 319.991 220.06 319.231 220.06C319.998 220.061 320.76 220.061 321.521 220.061Z" fill="black"/>
<path fill-rule="evenodd" clip-rule="evenodd" d="M292.667 237.531C293.429 237.227 294.192 237.287 294.957 237.523C294.194 237.526 293.431 237.529 292.667 237.531Z" fill="black"/>
<path fill-rule="evenodd" clip-rule="evenodd" d="M338.926 230.107C338.466 230.112 338.007 230.118 337.552 230.123C338.013 230.118 338.469 230.112 338.926 230.107Z" fill="black"/>
<path fill-rule="evenodd" clip-rule="evenodd" d="M329.308 224.099C330.071 224.149 330.835 224.199 331.598 224.249C330.835 224.198 330.071 224.149 329.308 224.099Z" fill="black"/>
<path fill-rule="evenodd" clip-rule="evenodd" d="M320.605 223.642C321.217 223.692 321.827 223.742 322.438 223.792C321.826 223.741 321.216 223.692 320.605 223.642Z" fill="black"/>
<path fill-rule="evenodd" clip-rule="evenodd" d="M311.903 232.41C311.597 232.404 311.29 232.397 310.987 232.391C311.295 232.397 311.599 232.404 311.903 232.41Z" fill="black"/>
<path fill-rule="evenodd" clip-rule="evenodd" d="M321.521 227.859C321.215 227.839 320.908 227.821 320.605 227.802C320.913 227.82 321.217 227.839 321.521 227.859Z" fill="black"/>
<path fill-rule="evenodd" clip-rule="evenodd" d="M315.567 227.843C315.26 227.834 314.954 227.825 314.651 227.818C314.959 227.826 315.263 227.834 315.567 227.843Z" fill="black"/>
<path fill-rule="evenodd" clip-rule="evenodd" d="M332.056 227.418C332.056 227.536 333.435 226.935 333.43 227.494L332.056 227.418Z" fill="black"/>
<path fill-rule="evenodd" clip-rule="evenodd" d="M327.018 220.06C326.711 220.06 326.404 220.061 326.102 220.061C326.41 220.061 326.713 220.06 327.018 220.06Z" fill="black"/>
<path fill-rule="evenodd" clip-rule="evenodd" d="M164.425 198.387C164.921 196.367 164.786 194.786 166.552 196.077C167.521 196.786 169.12 200.379 168.998 201.596C168.849 203.097 168.163 203.696 166.747 203.218C165.119 202.668 164.473 199.897 164.425 198.387Z" fill="black"/>
<path fill-rule="evenodd" clip-rule="evenodd" d="M253.658 186.125C257.76 186.125 255.971 190.481 252.551 190.578C250.98 190.623 248.72 190.314 249.229 188.215C249.502 187.095 253.487 185.585 253.658 186.125Z" fill="black"/>
<path fill-rule="evenodd" clip-rule="evenodd" d="M209.664 194.695C212.625 196.125 208.459 202.402 205.769 200.848C202.323 198.859 208.446 195.591 209.664 194.695Z" fill="black"/>
<path fill-rule="evenodd" clip-rule="evenodd" d="M202.46 200.637C203.429 201.692 207.796 205.268 205.389 206.706C202.428 208.474 200.175 202.637 202.46 200.637Z" fill="black"/>
<path fill-rule="evenodd" clip-rule="evenodd" d="M152.827 197.895C151.864 196.036 153.189 191.172 156.131 192.061C159.09 192.956 154.456 197.401 152.827 197.895Z" fill="black"/>
<path fill-rule="evenodd" clip-rule="evenodd" d="M218.168 198.966C220.088 198.194 219.722 200.477 220.012 201.213C220.341 202.05 222.032 204.087 221.608 204.977C220.979 206.298 219.474 205.456 218.657 204.599C217.225 203.095 217.327 200.683 218.168 198.966Z" fill="black"/>
<path fill-rule="evenodd" clip-rule="evenodd" d="M188.901 201.081C187.3 201.081 183.479 196.476 185.724 195.704C188.511 194.745 190.841 201.42 188.901 201.081Z" fill="black"/>
<path fill-rule="evenodd" clip-rule="evenodd" d="M244.214 193.781C245.679 194.142 247.62 198.284 245.41 198.764C242.964 199.296 242.528 194.927 244.214 193.781Z" fill="black"/>
<path fill-rule="evenodd" clip-rule="evenodd" d="M235.326 201.551C234.176 199.341 233.893 194.612 236.7 198.408C237.308 199.23 237.935 198.898 237.623 200.254C237.35 201.439 236.261 201.551 235.326 201.551Z" fill="black"/>
<path fill-rule="evenodd" clip-rule="evenodd" d="M174.769 190.125C175.941 191.885 175.595 197.404 173.146 194.14C172.105 192.752 172.822 190.191 174.769 190.125Z" fill="black"/>
<path fill-rule="evenodd" clip-rule="evenodd" d="M233.67 24.2674C235.944 23.6817 236.489 29.0303 235.163 29.6199C233.307 30.445 233.539 25.1621 233.67 24.2674Z" fill="black"/>
<path fill-rule="evenodd" clip-rule="evenodd" d="M377.47 295.996C375.36 295.873 372.404 295.299 375.6 293.804C377.628 292.858 380.643 292.792 382.784 293.18C384.26 293.448 386.475 294.669 384.223 296.251C382.904 297.177 379.073 296.041 377.47 295.996Z" fill="black"/>
<path fill-rule="evenodd" clip-rule="evenodd" d="M375.105 299.813C374.495 299.744 373.885 299.675 373.276 299.607C373.766 298.721 375.187 298.535 375.105 299.813Z" fill="black"/>
<path fill-rule="evenodd" clip-rule="evenodd" d="M377.856 295.908C378.469 295.921 379.081 295.935 379.688 295.948C379.074 295.934 378.465 295.921 377.856 295.908Z" fill="black"/>
</svg>
