<svg width="651" height="536" viewBox="0 0 651 536" fill="none" xmlns="http://www.w3.org/2000/svg">
<path d="M650.667 0H0V535.739H650.667V0Z" fill="#FFF502"/>
<path d="M650.667 0H0V535.739H650.667V0Z" fill="#FFF502"/>
<path fill-rule="evenodd" clip-rule="evenodd" d="M395.113 347.562C394.092 364.006 373.766 372.555 361.438 376.064C363.909 359.932 367.101 343.209 365.115 326.849C364.462 321.46 363.604 316.1 362.683 310.759C362.342 308.785 361.991 306.812 361.626 304.842C361.538 304.363 360.823 302.266 361.051 301.789C361.458 300.934 364.906 301.068 365.785 301.105C368.049 301.201 370.271 301.829 372.343 302.822C376.697 304.91 380.365 308.503 383.388 312.469C390.516 321.822 395.883 335.162 395.113 347.562ZM371.581 235.781C359.782 243.451 345.569 247.568 332.111 249.575C311.609 252.631 290.676 249.112 270.632 244.236C265.711 243.039 260.8 241.749 255.951 240.234C255.732 255.828 259.729 270.658 267.534 283.664C273.986 294.416 282.407 303.402 289.768 313.362C296.62 322.634 302.147 333.092 302.421 345.33C302.536 350.437 302.153 355.11 298.258 358.419C294.344 361.745 289.058 362.978 284.268 363.736C272.275 365.633 259.714 364.608 247.796 362.519C245.482 362.113 243.173 361.652 240.888 361.074C238.295 360.419 237.387 359.647 235.221 361.784C230.548 366.395 228.404 373.311 227.345 379.926C225.362 392.317 226.034 406.771 228.894 418.996C231.649 430.771 244.651 437.297 254.283 440.144C283.337 448.728 315.392 436.873 337.685 415.77C338.171 415.309 338.653 414.843 339.124 414.363C340.708 417.983 342.436 421.539 344.326 424.977C345.641 427.369 347.025 429.773 348.683 431.902C349.281 432.67 349.984 433.709 350.802 434.212C352.326 435.149 353.875 434.461 355.6 434.132C368.324 431.706 381.018 428.516 393.117 423.493C411.511 415.856 428.007 403.274 436.725 383.4C441.129 373.361 443.425 362.362 444.536 351.331C445.812 338.666 446.087 325.719 442.841 313.374C436.892 290.752 421.714 272.413 405.092 258.268C394.807 249.515 383.5 241.605 371.581 235.781Z" fill="#FEFFCD"/>
<path fill-rule="evenodd" clip-rule="evenodd" d="M579.487 85.9781C576.798 87.1514 573.903 87.4777 571.042 87.7073C568.797 87.8869 567.036 88.8748 564.922 88.9305C559.033 89.0848 553.121 89.3751 547.261 90.3409C541.376 91.3117 535.956 90.0443 531.309 94.8985C529.655 96.6257 527.582 98.6117 528.576 101.4C529.032 102.677 529.674 103.592 530.053 104.963C530.481 106.513 531.013 107.976 531.632 109.451C532.82 112.281 538.769 122.818 533.942 124.107C528.708 125.504 521.611 123.871 516.569 122.273C513.628 121.34 510.733 120.247 507.834 119.17C505.539 118.318 502.524 117.834 500.409 116.499C499.007 115.612 498.716 114.1 497.789 112.663C496.103 110.049 494.527 107.823 492.348 105.648C487.827 101.137 482.175 98.0741 476.602 95.3817C476.242 95.2071 475.585 94.7998 475.197 94.76C474.777 94.717 474.315 95.1913 474.044 95.1338C473.301 94.975 473.042 94.4621 472.229 93.9548C471.136 93.2737 466.681 91.0075 465.902 92.7892C466.631 90.4484 467.163 91.1239 469.136 91.4635C470.005 91.6141 470.587 91.177 471.367 91.2207C472.087 91.2605 472.382 91.7102 472.984 91.8316C474.085 92.0536 475.11 91.8867 476.26 91.8772C476.569 91.129 477.007 91.1346 477.574 91.8936C477.891 92.0062 478.208 92.1188 478.525 92.232C479.67 92.5767 480.894 92.5109 482.066 92.6121C483.826 92.7652 488.414 95.1217 489.297 92.7367C490.238 90.1897 487.378 89.5547 486.901 87.7775C486.435 86.0338 488.615 85.0104 489.489 83.9574C490.486 82.7601 491.095 81.7089 492.264 80.654C492.949 80.0348 493.846 79.4574 494.354 78.6326C494.821 77.8736 494.801 76.6467 495.407 76.0142C496.13 75.2603 496.241 75.7821 496.898 75.4178C498.186 74.7024 497.617 74.7385 498.379 73.7607C499.03 72.9246 499.511 72.9499 500.364 72.3092C501.612 71.3712 502.051 69.5383 503.263 68.5302C504.15 67.7921 505.563 67.7933 506.342 67.0268C506.8 66.5752 506.659 65.8434 507.055 65.4172C507.816 64.5981 508.337 64.9308 509.287 64.6607C510.889 64.2053 511.408 63.2332 512.587 62.1074C513.665 61.0797 514.349 61.0841 515.698 60.6578C517.54 60.076 518.73 58.5517 520.393 57.6561C521.958 56.8137 523.575 56.2229 525.159 55.3255C526.302 54.6772 527.404 54.2749 528.448 53.6134C528.8 53.3901 528.831 52.5723 529.286 52.4616C529.808 52.3339 530.226 53.287 530.782 53.337C531.946 53.442 533.272 52.024 534.036 51.203C534.369 50.8463 534.818 49.8818 535.246 49.6826C536.141 49.2651 536.674 50.0918 537.471 49.7654C538.59 49.3075 538.145 47.9667 538.831 47.2273C539.431 46.5822 540.704 46.6258 541.769 46.8301C546.058 47.6511 539.382 50.9779 538.127 51.6508C536.016 52.7842 520.652 61.0291 524.247 65.1408C526.148 67.3158 530.791 65.6803 532.858 65.1072C536.482 64.1023 540.26 62.1675 543.977 61.7235C544.436 61.6685 545.807 62.0296 546.181 61.8722C547.026 61.5173 546.815 60.8077 547.502 60.4346C548.535 59.8742 550.647 59.9014 551.696 60.0272C552.516 60.1259 553.414 60.6635 554.249 60.5908C555.168 60.5105 556.056 59.9235 556.967 59.7344C558.527 59.4119 560.141 59.57 561.717 59.6199C563.982 59.6927 568.51 60.0684 565.219 63.3724C562.555 66.0465 557.947 67.2039 554.587 68.3708C549.616 70.0955 544.733 71.6647 539.826 73.6298C536.483 74.9681 529.351 77.319 533.331 82.3357C533.724 81.9284 534.117 81.5217 534.509 81.1144C534.974 81.6299 535.453 82.633 536.197 82.6621C536.815 82.6861 536.588 81.9562 537.173 81.7279C539.012 81.012 541.532 81.0664 543.47 80.9316C548.327 80.5939 553.166 79.8874 558.029 79.6686C562.609 79.4624 567.237 79.7306 571.727 80.7849C572.883 81.0562 583.651 84.161 579.487 85.9781ZM539.772 137.564C540.016 139.804 539.111 141.615 538.86 143.778C538.556 146.394 538.779 148.697 538.103 151.297C536.791 156.351 535.857 161.522 534.449 166.546C531.961 175.418 527.945 183.253 523.815 191.302C521.708 195.406 518.535 198.795 515.636 202.228C512.665 205.746 510.291 209.209 506.739 212.097C499.641 217.87 491.981 223.005 483.578 226.124C474.782 229.389 465.533 230.379 456.294 229.963C452.194 229.779 447.848 230.235 443.813 229.507C439.522 228.732 434.873 227.781 430.656 226.637C422.916 224.54 415.458 220.978 407.899 217.797C399.456 214.245 391.856 209.71 384.157 204.587C382.121 203.232 379.968 202.599 378.058 200.958C376.448 199.576 374.863 198.254 373.17 196.992C371.226 195.543 369.366 193.96 367.38 192.583C366.193 191.761 364.524 190.955 363.901 189.466C363.045 187.417 364.077 184.845 364.611 182.857C365.307 180.271 366.046 177.716 366.882 175.18C368.297 170.887 371.897 164.265 369.917 159.725C365.742 162.566 363.9 168.148 362.116 172.894C359.984 178.563 358.495 184.22 358.174 190.369C357.528 202.738 359.413 215.758 363.502 227.291C364.109 229.004 365.176 230.862 364.392 232.694C363.569 234.617 361.336 236.241 359.619 237.072C354.19 239.702 348.739 240.468 343.068 241.922C341.524 242.318 339.834 243.507 338.385 243.657C337.407 243.758 336.599 243.406 335.479 243.414C334.354 243.423 333.474 244.114 332.468 244.188C331.589 244.253 330.809 243.689 329.971 243.742C328.096 243.862 327.751 247.389 326.822 244.284C326.653 244.412 325.722 245.57 325.605 245.57C325.34 245.571 324.873 244.707 324.62 244.553C324.127 244.254 323.478 244.237 322.927 244.158C321.711 243.985 320.4 243.967 319.203 244.273C316.983 244.841 314.75 244.602 312.852 244.561C312.42 244.552 312.114 244.934 311.577 244.911C311.332 244.9 310.98 244.425 310.721 244.352C309.22 243.927 307.662 244.244 306.133 244.151C302.542 243.934 299.073 243.829 295.566 242.957C288.378 241.17 281.05 240.812 273.834 239.179C270.157 238.346 266.566 237.892 262.946 236.795C261.674 236.409 260.37 236.227 259.243 235.701C258.166 235.198 258.59 234.528 256.919 235.873C256.168 233.854 256.08 234.06 254.268 233.392C253.567 233.133 251.957 232.491 251.435 231.983C251.384 231.932 250.268 228.857 250.172 228.48C249.708 226.644 250.095 224.545 250.289 222.697C250.726 218.531 251.359 214.397 251.397 210.198C251.413 208.346 251.717 208.293 252.242 206.897C252.404 206.464 252.882 206.498 252.921 205.839C252.975 204.962 252.157 204.351 252.245 203.325C252.363 201.945 253.624 200.548 254.067 199.262C254.599 197.713 254.593 196.077 254.911 194.474C255.335 192.342 256.156 190.341 256.57 188.201C256.923 186.388 256.956 184.946 257.836 183.39C258.715 181.838 258.456 180.57 259.157 179.023C259.8 177.605 260.614 177.096 261.054 175.383C262.12 171.241 263.74 167.139 266.035 163.626C268.054 172.434 270.202 181.532 275.823 188.494C278.138 191.36 281.127 194.253 284.618 195.125C288.565 196.113 291.722 193.557 294.292 190.529C300.416 183.314 302.953 175.261 303.323 165.478C303.415 163.046 303.402 160.611 303.372 158.178C303.358 157.095 302.852 154.316 303.528 153.406C304.269 152.408 306.383 153.031 307.484 152.373C308.837 151.563 310.324 149.395 309.72 147.608C313.327 149.401 316.775 151.761 320.786 152.26C322.374 152.458 324.065 152.157 325.485 152.074C325.443 152.076 326.585 152.332 326.653 152.349C326.934 151.992 327.239 151.906 327.567 152.089C327.859 152.122 328.071 152.294 328.205 152.605C333.921 153.232 339.678 150.131 344.571 146.846C347.43 144.926 350.57 142.085 351.372 138.348C351.659 137.015 351.411 135.759 352.667 135.078C353.687 134.525 355.656 135.323 356.733 135.409C360.519 135.714 364.251 135.32 367.947 136.559C370.203 137.314 374.141 142.613 375.715 138.885C376.397 139.589 376.026 140.841 376.753 141.525C377.386 142.122 379.516 142.542 380.391 143.052C381.748 143.842 382.543 144.893 383.731 145.843C385.19 147.01 386.717 147.099 388.13 148.469C393.021 153.211 398.752 156.646 404.214 160.579C410.695 165.244 416.43 170.744 423.383 174.549C430.496 178.44 437.378 181.691 445.149 183.716C448.675 184.634 452.29 185.4 455.909 185.684C457.616 185.817 459.245 185.75 460.891 186.312C461.891 186.653 462.214 186.824 463.197 186.856C463.77 186.874 464.598 186.511 465.303 186.525C466.751 186.554 467.491 186.488 468.798 187.015C470.277 187.609 471.506 187.967 473.19 188.018C475.127 188.078 476.267 187.261 478.027 186.758C479.445 186.352 480.722 186.545 481.992 185.702C487.632 181.956 492.165 176.235 495.123 169.741C498.52 162.287 501.136 153.201 501.669 144.848C501.973 140.066 501.013 135.404 499.349 131.014C498.88 129.776 496.064 124.502 496.932 123.544C497.916 122.455 501.136 124.95 502.044 125.492C504.925 127.211 510.127 127.762 512.146 130.653C512.66 129.569 515.52 131.175 516.438 131.627C517.196 132.001 517.412 132.677 518.366 132.758C519.266 132.834 520.194 132.047 521.021 131.795C520.417 133.646 522.448 133.733 523.841 133.831C524.843 133.902 525.92 133.728 526.813 133.659C528.522 133.525 528.549 133.104 530.11 132.143C530.049 132.847 530.119 133.534 530.318 134.206C531.321 132.611 533.235 133.719 534.59 133.018C533.61 131.386 537.792 130.94 538.766 131.283C541.218 132.147 539.556 135.58 539.772 137.564ZM347.806 249.711C349.423 249.182 351.051 248.697 352.674 248.191C351.445 249.43 350.168 251.664 348.413 252.013C346.296 252.432 345.462 250.478 347.806 249.711ZM267.944 250.598C270.667 250.956 273.633 250.682 276.02 252.447C274.856 253.917 274.101 255.455 272.16 254.612C270.53 253.905 269.187 251.887 267.944 250.598ZM358.929 331.049C357.141 329.288 357.376 328.501 358.216 326.221C358.578 325.241 359.149 322.194 360.506 323.087C360.987 323.403 361.571 326.723 361.657 327.397C361.849 328.901 361.002 333.09 358.929 331.049ZM369.015 320.824C368.383 318.275 368.405 315.5 367.784 312.889C367.129 310.132 366.323 307.365 366.091 304.515C375.54 306.348 380.906 316.643 384.999 325.234C387.173 329.799 389.305 334.848 390.126 339.951C390.926 344.925 389.537 348.7 387.924 353.133C387.102 355.395 385.743 356.18 384.156 357.675C382.75 359 382.223 361.235 380.758 362.425C379.676 363.304 378.269 363.761 377.137 364.649C376.019 365.525 374.901 366.395 373.746 367.214C372.427 368.15 368.473 371.562 366.692 370.834C365.359 370.289 365.953 368.498 366.289 367.375C366.996 365.007 367.493 362.727 367.93 360.259C369.096 353.674 369.727 347.13 370.029 340.431C370.325 333.891 370.6 327.209 369.015 320.824ZM361.112 350.527C361.254 350.851 361.844 353.615 360.527 353.047C359.612 352.652 360.978 351.035 361.112 350.527ZM366.679 240.762C367.794 240.256 368.24 241.752 369.221 241.797C370.523 241.856 370.796 240.267 372.162 240.22C375.501 240.105 380.339 243.648 383.054 245.497C381.724 247.341 381.176 249.229 381.837 251.501C382.42 253.502 384.644 255.739 384.563 257.86C384.479 259.986 382.072 261.356 381.321 263.247C380.631 264.985 380.368 268.46 382.498 269.226C386.161 270.544 387 263.01 389.776 262.952C390.963 262.927 392.505 265.378 393.359 266.14C395.271 267.849 397.427 269.096 399.65 270.231C401.151 270.996 403.24 272.505 404.353 270.447C405.245 268.799 404.516 266.188 403.649 264.77C402.655 263.143 393.744 255.697 394.307 255.041C394.607 254.691 396.826 255.656 397.14 255.949C397.85 256.609 398.112 257.684 398.824 258.387C399.911 259.46 401.315 259.885 402.659 260.382C405.463 261.416 407.239 265.056 409.957 266.751C411.525 267.729 412.483 269.606 413.809 271.06C415.546 272.963 417.315 274.957 417.054 277.759C416.873 279.701 416.61 284.225 415.61 285.863C414.524 287.641 412.717 286.959 411.067 287.379C409.211 287.852 407.727 289.442 408.096 291.713C408.48 294.074 410.2 294.243 411.997 294.302C417.065 294.471 415.199 298.004 416.966 301.884C417.926 303.992 419.528 304.819 420.63 302.352C421.517 300.368 419.932 297.239 420.895 295.544C422.068 293.479 428.347 294.041 429.656 295.645C430.649 296.862 431.175 298.534 432.165 299.807C433.667 301.738 434.285 304.446 435.186 306.814C436.144 309.33 436.978 311.881 437.711 314.486C438.226 316.316 439.338 319.214 436.676 317.651C434.816 316.56 433.427 314.097 431.071 314.02C428.74 313.942 427.412 316.6 428.093 318.911C428.752 321.147 431.756 322.133 432.104 324.4C432.486 326.881 428.616 329.412 427.442 331.236C424.735 335.436 426.999 340.164 431.434 336.599C433.006 335.335 434.652 332.786 436.425 331.988C439.231 330.724 439.215 335.406 440.558 337.129C441.282 338.055 441.543 337.114 441.115 338.499C440.957 339.009 440.156 339.169 440.065 339.804C440 340.269 440.38 340.516 440.393 340.875C440.438 342.096 440.44 342.276 440.19 343.603C439.914 345.073 440.014 346.901 439.931 348.396C439.739 351.812 439.698 355.074 439.372 358.489C439.19 360.389 438.81 364.261 440.854 365.187C440.126 366.439 439.158 369.92 437.728 369.658C437.844 370.482 437.779 371.534 438.508 372.073C438.682 371.57 438.857 371.068 439.03 370.565C439.431 371.714 439.079 371.846 439.055 372.629C439.084 371.66 438.25 373.978 438.701 373.692C438.318 374.044 437.812 374.245 437.235 374.701C436.43 375.337 436.005 376.217 435.38 377.077C434.248 378.633 434.314 380.204 433.323 381.827C431.917 384.129 430.114 386.401 428.634 388.7C427.428 390.572 425.131 391.652 424.165 393.665C423.551 394.945 423.306 396.433 422.258 397.333C420.757 398.622 418.751 399.837 417.12 401.168C416.095 402.005 415.315 403.166 414.292 403.978C413.774 404.39 412.214 404.807 412.212 405.645C410.249 405.041 408.859 402.84 407.315 401.5C406.284 400.605 403.827 399.442 403.976 397.647C404.098 396.179 405.998 394.358 406.436 392.818C406.808 391.514 407.325 389.081 406.298 387.967C404.142 385.63 401.699 390.646 400.542 391.981C398.155 394.735 397.141 391.958 395.178 389.958C392.043 386.764 390.073 390.078 391.176 394.055C391.736 396.069 393.864 397.865 394.001 399.921C394.153 402.181 391.923 403.316 391.041 405.122C390.207 406.824 389.822 409.815 391.389 411.224C393.116 412.779 394.618 410.94 395.748 409.505C396.626 408.391 397.601 405.939 399.026 405.8C400.811 405.626 403.74 409.186 405.098 410.285C403.034 410.94 401.792 412.838 400.047 414.053C397.796 415.621 394.653 415.993 392.133 417.069C389.759 418.084 387.624 418.91 385.364 420.168C382.681 421.661 379.401 422.034 376.56 423.121C374.025 424.092 371.62 425.454 369.03 426.255C366.111 427.159 363.081 427.702 360.137 428.519C357.621 429.216 354.668 429.887 352.075 429.892C349.451 429.897 349.506 428.114 348.667 425.738C347.67 422.915 346.019 420.438 344.966 417.683C343.964 415.064 345.477 414.069 346.928 412.065C348.295 410.176 347.933 409.88 349.696 411.207C352.017 412.952 353.549 411.772 355.355 409.764C356.961 407.98 357.551 406.496 359.862 407.74C362.174 408.982 364.378 411.006 366.862 411.816C368.82 412.455 370.278 411.991 370.606 409.64C370.96 407.101 369.641 405.298 367.978 403.789C366.712 402.642 363.947 401.281 363.485 399.419C362.998 397.457 365.565 394.596 365.839 392.402C366.185 389.633 365.099 387.598 362.706 389.514C360.97 390.904 359.814 393.92 357.405 394.107C358.074 391.025 359.526 388.285 360.771 385.46C361.815 383.096 362.71 380.411 365.512 380.147C366.421 380.062 367.012 380.166 367.878 379.995C369.023 379.769 370.576 379.589 371.8 379.25C374.678 378.451 377.221 376.011 379.871 374.612C380.479 376.408 381.554 381.522 384.029 378.536C385.86 376.327 383.832 372.526 385.518 370.07C388.997 365 396.574 368.723 401.145 366.108C403.134 364.971 404.754 361.342 401.948 360.248C400.309 359.609 395.576 361.968 394.59 360.229C393.887 358.988 396.833 354.141 397.189 352.809C398.297 348.662 398.117 344.358 398.117 340.087C400.341 341.086 403.155 343.424 405.552 343.744C408.016 344.073 408.449 340.896 407.804 338.81C406.914 335.935 403.948 333.579 401.915 331.727C401.019 330.912 398.673 329.597 398.182 328.356C397.674 327.075 398.401 326.455 398.971 325.341C399.86 323.6 402.015 319.102 399.67 317.472C397.513 315.971 396.302 320.176 394.928 321.075C392.596 322.602 391.797 319.105 390.869 317.325C389.186 314.095 386.854 311.212 384.76 308.305C382.853 305.66 381.679 303.869 381.401 300.497C381.19 297.943 380.715 295.967 383.457 295.386C388.319 294.358 395.438 296.892 399.388 292.548C401.459 290.271 399.98 287.916 397.364 288.033C393.928 288.188 390.661 288.374 387.203 288.067C385.365 287.905 381.522 288.395 380.594 286.315C379.399 283.636 381.425 279.333 379.226 276.986C376.418 273.988 375.73 280.762 375.636 282.633C375.568 283.996 375.886 286.07 375.114 287.249C374.393 288.348 373.076 288.332 372.01 288.73C369.326 289.731 367.939 293.353 371.501 294.119C372.698 294.377 374.369 294.002 375.364 294.977C376.407 295.997 376.009 297.811 376.106 299.187C373.612 296.012 368.427 297.419 365.049 296.24C363.27 295.619 362.969 294.792 362.22 292.9C361.315 290.611 359.251 287.716 359.171 285.184C359.105 283.035 360.735 281.418 361.495 279.564C362.148 277.975 362.739 275.388 362.643 273.603C362.41 269.301 355.34 273.693 353.884 275.34C351.241 278.327 347.983 282.192 349.415 286.424C350.693 290.2 351.371 292.341 346.938 292.044C345.315 291.936 341.906 292.288 340.647 291.536C339.712 290.977 340.063 289.976 340.032 288.525C340.006 287.268 340.093 285.363 339.358 284.264C336.772 280.401 336.167 290.015 334.715 291.056C332.446 292.685 327.643 290.978 328.014 295.812C328.338 300.041 333.544 298.314 334.984 301.953C335.678 303.706 335.53 305.746 336.404 307.437C337.649 309.848 339.181 309.72 340.006 307.207C340.586 305.441 339.813 303.627 340.259 301.961C340.903 299.552 343.968 299.776 345.854 299.503C348.146 299.172 350.144 298.539 352.323 297.764C355.014 296.809 354.867 298.377 355.305 300.649C355.813 303.284 356.59 305.825 357.066 308.499C357.51 310.992 358.687 313.676 358.88 316.171C359.026 318.077 358.437 317.904 356.999 319.004C355.427 320.207 353.696 323.333 351.872 323.847C349.128 324.621 346.362 317.733 343.865 321.258C342.792 322.77 343.207 325.992 343.97 327.556C344.977 329.621 346.829 330.147 345.277 332.513C344.11 334.29 342.645 335.667 342.535 338.059C342.433 340.28 343.808 342.38 345.958 341.728C347.695 341.202 348.722 339.248 350.038 338.062C352.309 336.014 354.173 337.911 356.497 339.07C358.327 339.982 361.689 340.578 362.607 342.723C363.772 345.446 362.278 346.498 360.114 345.724C360.957 348.768 359.847 350.536 359.543 353.683C359.296 356.23 358.763 358.559 358.423 361.022C357.972 364.31 357.924 363.953 354.843 364.065C352.224 364.16 349.679 364.083 347.065 363.957C344.761 363.845 343.194 364.074 343.09 361.022C343.044 359.675 343.818 355.108 341.4 355.656C339.271 356.139 339.884 360.312 339.172 361.88C338.142 364.15 336.399 363.456 334.46 364.016C332.488 364.587 330.894 366.186 331.402 368.656C331.946 371.294 334.147 371.11 336.061 371.72C339.009 372.66 338.362 377.42 340.082 380.006C340.785 381.061 341.523 382.126 342.702 381.261C344.864 379.672 342.823 375.792 343.394 373.845C343.995 371.798 346.02 372.217 347.934 371.952C350.759 371.56 353.717 370.064 356.531 370.082C355.992 371.866 354.48 372.902 353.935 374.78C353.644 375.787 353.916 377.667 353.511 378.499C353.075 379.393 351.702 379.661 351.134 380.905C350.391 382.534 350.161 384.279 349.292 385.874C347.236 389.646 345.464 393.503 343.279 397.237C341.022 401.094 338.589 404.764 335.75 408.106C332.996 411.35 332.174 409.779 329.807 407.128C328.844 406.048 326.797 404.799 326.529 403.188C326.265 401.599 327.462 400.302 328.117 399.009C328.986 397.295 330.555 394.344 330.173 392.287C329.455 388.424 326.31 391.981 325.117 393.427C323.034 395.953 321.87 398.61 318.722 396.614C316.707 395.337 314.166 391.839 311.521 393.133C309.114 394.31 309.788 397.712 311.269 399.438C312.099 400.404 313.281 400.958 314.161 401.863C316.056 403.813 314.984 404.342 314.118 406.526C313.411 408.315 313.308 411.83 314.613 413.32C317.181 416.25 319.166 410.339 321.548 410.219C322.678 410.162 327.373 413.545 327.708 414.762C328.295 416.9 323.23 419.451 321.884 420.454C318.754 422.787 315.343 425.165 311.822 426.711C307.666 428.537 310.763 422.785 308.491 420.873C305.537 418.387 305.308 425.198 305.005 426.891C304.199 431.391 299.869 431.508 296.376 432.625C294.151 433.336 291.926 434.09 289.678 434.709C287.772 435.233 285.637 435.22 283.788 435.87C282.167 436.44 281.058 437.596 279.245 437.609C278.656 437.614 278.143 437.394 277.575 437.38C276.428 437.349 275.377 438.068 274.281 437.994C272.459 437.869 273.252 437.239 272.617 435.842C272.022 434.532 270.507 434.05 269.328 433.641C265.948 432.469 263.135 433.496 262.644 428.778C262.493 427.33 262.692 421.381 260.182 422.076C257.25 422.887 259.83 429.958 258.01 431.729C257.124 432.591 255.787 432.161 254.72 432.416C252.967 432.834 252.199 434.287 250.281 434.189C248.662 434.108 247.156 433.319 245.745 432.536C243.643 431.367 241.134 430.593 239.381 428.811C236.978 426.367 235.924 422.562 234.899 419.259C233.392 414.392 232.75 409.543 232.507 404.441C232.423 402.662 231.735 401.407 231.447 399.775C231.142 398.039 232.045 397.691 232.253 396.047C232.455 394.448 232.357 392.741 232.663 391.028C233.103 388.564 233.258 386.045 233.684 383.574C234.391 379.488 235.462 375.43 236.342 371.381C236.615 370.123 237.11 366.091 238.524 365.704C239.567 365.418 241.976 367.124 242.943 367.625C244.854 368.614 246.498 369.982 248.543 370.667C249.598 371.021 250.931 370.986 251.623 372.062C252.718 373.765 251.833 377.099 252.287 379.111C252.842 381.574 254.681 382.622 256.163 380.147C256.952 378.829 256.742 377.256 256.848 375.798C257 373.696 257.034 373.187 259.106 373.329C261.205 373.473 263.254 374.343 265.406 374.449C267.346 374.544 269.296 374.485 271.235 374.369C275.943 374.086 280.249 373.245 284.664 371.405C287.654 370.158 291.122 367.433 294.418 367.529C299.071 367.664 297.811 372.393 298.448 375.931C298.836 378.084 302.116 384.693 303.376 379.329C303.998 376.676 301.923 372.808 303.153 370.411C304.605 367.58 309.945 369.929 312.374 369.273C314.34 368.743 317.625 365.682 316.237 363.042C315.58 361.791 314.302 362.028 313.163 361.935C311.005 361.758 308.861 361.435 306.721 361.089C305.503 360.891 303.642 360.777 303.155 359.241C302.742 357.938 304.679 354.559 305.1 353.312C306.49 349.185 306.992 345.828 306.997 341.327C306.999 339.299 307.12 337.159 306.823 335.153C306.714 334.418 305.709 332.018 306.179 331.315C306.812 330.37 308.107 331.569 308.627 332.278C309.659 333.689 309.3 333.576 308.713 335.038C307.849 337.189 306.169 341.699 309.018 343.354C311.997 345.086 313.074 339.235 315.896 339.876C317.212 340.175 318.511 342.075 319.571 342.963C320.813 344.002 322.153 345.104 323.612 345.742C326.005 346.788 328.695 346.004 327.728 342.699C326.965 340.092 324.553 337.912 322.828 336.065C320.08 333.121 320.204 331.885 322.103 328.418C322.897 326.967 325.949 320.806 322.412 320.305C320.54 320.039 318.516 323.372 317.527 324.647C315.83 326.835 314.857 327.774 312.332 326.017C309.864 324.3 308.718 322.865 305.733 322.707C302.299 322.524 300.754 316.859 298.933 313.949C293.986 306.045 286.413 302.136 280.028 296.08C276.916 293.129 274.815 289.268 272.449 285.635C271.322 283.904 269.867 282.467 268.949 280.581C268.371 279.396 266.806 276.537 267.214 275.138C267.72 273.397 270.457 272.321 271.596 271.091C272.551 270.059 273.061 268.772 274.564 269.167C275.902 269.518 277.107 271.506 278.201 272.379C279.274 273.236 280.485 274.032 281.675 274.672C283.828 275.832 286.427 276.451 286.553 272.925C286.663 269.875 284.129 266.608 282.298 264.551C280.966 263.053 278.948 261.751 279.212 259.373C279.342 258.193 280.254 256.094 280.787 255.105C282.623 251.7 288.228 253.777 291.273 253.996C294.942 254.259 298.988 253.583 301.905 256.433C302.856 257.363 305.061 259.189 305.528 260.483C306.071 261.989 305.183 262.666 304.69 264.125C304.052 266.008 303.614 269.728 305.45 271.027C308.514 273.194 310.111 266.765 313.296 268.171C316.317 269.505 318.428 273.339 321.876 273.946C326.388 274.74 323.818 268.6 322.257 266.793C320.232 264.451 316.305 262.029 317.591 258.565C317.958 257.575 318.797 255.51 319.552 254.896C321.03 253.693 323.412 254.354 325.104 254.373C329.375 254.423 333.407 254.037 337.592 253.218C338.854 252.97 339.141 252.774 340.03 253.807C341.262 255.234 341.908 257.095 343.34 258.498C341.271 260.946 338.204 263.836 339.643 267.604C340.881 270.847 343.594 269.257 345.43 267.524C346.291 266.711 347.182 264.989 348.325 264.663C349.808 264.239 351.474 265.718 352.688 266.469C354.511 267.597 358.408 270.939 360.478 268.966C363.216 266.356 359.976 262.428 358.09 260.816C356.949 259.842 355.43 259.146 354.47 257.942C353.193 256.341 353.942 256.106 354.716 254.662C356.133 252.022 355.613 248.62 357.879 246.557C359.136 245.413 360.932 244.694 362.366 243.855C363.778 243.029 365.294 241.39 366.679 240.762ZM389.765 251.033C389.214 250.662 388.663 250.291 388.112 249.921C389.372 249.246 390.203 249.327 389.765 251.033ZM420.166 283.121C420.388 281.889 421.254 279.684 422.446 280.837C423.213 281.578 422.375 284.361 424.201 283.591C424.295 285.364 423.092 285.213 424.866 286.79C422.628 286.505 419.539 286.617 420.166 283.121ZM333.298 432.551C333.861 430.891 333.856 428.317 335.591 429.834C335.682 427.824 335.249 421.449 338.573 421.708C339.929 421.813 339.914 423.126 340.272 424.263C340.896 426.246 341.951 428.053 342.84 429.901C339.541 430.048 336.24 430.877 333.298 432.551ZM334.378 455.465C336.263 457.029 337.208 455.182 338.987 454.509C340.63 453.887 342.335 454.26 344.155 453.818C346.412 453.271 349.07 453.354 351.275 453.332C351.818 453.327 352.954 453.422 353.503 453.491C354.503 453.617 354.414 453.844 355.449 454.15C355.849 454.049 356.253 453.975 356.661 453.929C357.16 453.905 357.554 454.132 357.842 454.61C358.773 454.951 359.112 454.724 360.003 454.963C362.127 455.532 363.711 456.936 365.097 458.798C367.92 462.587 368.004 468.282 367.94 472.972C367.922 474.308 367.828 475.637 367.963 476.97C368.086 478.192 368.873 480.038 368.552 481.253C368.064 483.092 366.556 482.678 364.8 482.761C363.766 482.809 362.734 483.541 361.911 483.606C361.116 483.669 360.795 483.347 359.99 483.149C357.889 482.633 355.409 483.369 353.337 483.997C351.21 484.642 349.345 485.277 347.188 485.733C345.785 486.03 344.522 486.199 343.107 486.393C341.946 486.552 341.445 487.223 340.432 487.5C339.455 487.765 338.503 487.367 337.518 487.576C336.174 487.861 335.238 488.944 334.014 489.482C332.327 490.225 329.63 489.115 328.883 491.405C328.59 489.197 326.66 489.797 325.224 489.601C322.857 489.279 320.524 488.113 318.248 487.37C316.381 486.761 309.926 481.144 308.69 483.423C308.692 483.193 308.916 481.888 308.721 481.737C308.033 481.205 308.039 481.498 307.297 481.165C306.163 480.656 305.684 480.196 304.874 479.338C303.234 477.603 301.027 476.695 299.3 475.121C294.96 471.167 293.475 463.021 292.416 457.351C291.032 460.046 291.541 456.588 291.781 455.432C292.347 452.706 291.618 451.361 291.454 448.727C291.302 446.304 292.308 445.825 294.3 445.572C296.755 445.26 299.118 444.823 301.522 444.151C303.818 443.508 306.068 442.783 308.139 441.506C310.035 440.336 312.025 439.877 313.964 438.853C316.102 437.724 318.198 436.537 320.356 435.437C321.328 434.942 325.609 431.395 326.353 431.611C327.878 432.055 326.438 434.988 325.973 435.758C324.777 437.735 322.815 438.652 321.045 439.896C319.448 441.018 314.605 446.331 319.522 445.798C322.779 445.445 324.986 441.696 327.071 445.968C327.806 447.477 328.889 448.688 328.043 450.247C326.862 452.421 323.455 453.458 321.669 454.921C320.146 456.169 317.032 462.05 320.17 462.68C321.073 462.861 322.464 462.627 323.134 461.857C323.587 461.338 323.555 460.269 324.013 459.914C324.661 459.41 325.921 460.034 326.662 459.758C327.717 459.364 327.964 458.732 328.352 457.619C329.478 458.183 329.494 458.941 330.781 458.213C331.207 457.971 331.364 457.085 331.858 456.849C332.521 456.531 332.718 457.572 333.083 457.419C334.069 457.004 334.065 456.536 334.378 455.465ZM266.761 438.168C264.872 438.323 262.809 438.49 261.196 437.168C263.155 437.298 264.883 437.783 266.845 437.339C267.626 437.163 268.875 436.354 269.675 436.635C272.515 437.635 267.517 438.105 266.761 438.168ZM261.515 255.715C261.486 254.985 260.923 245.17 263.977 249.025C264.813 250.08 263.911 251.492 263.792 252.659C263.591 254.625 264.219 256.595 265.163 258.25C266.042 259.794 267.686 261.146 267.44 263.159C267.224 264.925 265.6 266.433 264.8 267.899C262.833 264.495 261.673 259.811 261.515 255.715ZM254.802 152.707C247.725 153.524 240.684 154.971 233.861 157.204C227.162 159.396 220.917 162.823 214.622 166.106C213.325 160.007 211.966 153.924 210.685 147.821C210.068 144.883 209.479 141.938 208.902 138.99C208.491 136.894 206.997 132.987 207.62 130.925C207.951 129.833 208.388 129.829 209.1 129.154C209.534 128.742 210.292 127.735 210.742 127.519C211.84 126.996 214.658 126.537 215.781 126.611C216.804 126.679 217.339 127.125 218.392 126.802C219.289 126.527 220.041 125.77 220.883 125.354C223.024 124.298 225.696 123.943 227.986 123.384C230.189 122.846 232.464 122.727 234.672 122.193C236.607 121.726 237.526 120.162 239.176 120.219C243.47 120.366 248.219 119.814 252.48 118.688C257.26 117.424 262.46 117.668 267.364 117.533C269.318 117.479 270.691 116.996 270.701 119.385C270.712 122.3 269.652 125.571 269.111 128.417C267.911 134.726 266.895 140.858 266.441 147.264C266.215 150.469 265.018 150.245 262.646 151.228C260.006 152.321 257.609 152.383 254.802 152.707ZM217.595 217.433C219.339 217.716 219.139 212.48 219.266 211.415C223.423 220.023 228.106 228.307 231.769 237.197C232.625 239.276 233.402 241.403 234.307 243.456C234.926 244.862 236.311 246.75 236.278 248.386C236.243 250.093 234.987 250.731 233.663 251.365C232.233 252.048 231.674 252.389 230.666 251.599C229.446 250.641 228.427 247.692 227.674 246.27C226.523 244.099 225.421 241.898 224.294 239.713C222.253 235.751 219.843 231.958 218.166 227.8C216.594 223.904 214.216 220.552 212.523 216.725C210.845 212.934 208.549 209.341 206.621 205.632C208.558 204.747 210.972 202.537 213.172 202.659C215.445 202.786 215.389 205.195 215.488 207.202C215.592 209.332 214.942 217.002 217.595 217.433ZM223.178 256.322C222.142 257.673 219.803 258.467 218.369 259.216C216.383 260.253 214.349 261.176 212.372 262.235C205.887 265.709 199.428 268.89 192.821 272.08C189.406 273.729 186.032 275.483 182.7 277.323C180.954 278.288 177.107 281.666 175.098 281.752C172.796 281.85 172.742 276.746 172.234 274.83C171.808 273.228 171.017 271.981 170.485 270.463C170.268 269.842 170.437 269.372 170.106 268.757C169.729 268.057 168.676 267.493 168.134 266.889C165.832 264.323 163.925 261.056 161.981 258.165C160.2 255.517 157.163 252.201 156.309 248.956C154.63 242.577 164.387 239.046 168.12 236.483C174.656 231.995 181.223 227.386 187.454 222.4C190.292 220.129 193.071 217.768 195.923 215.517C197.254 214.467 200.943 210.381 202.651 211.836C203.287 212.379 203.299 213.879 203.565 214.665C204.145 216.383 205.026 217.883 205.918 219.424C206.71 220.788 207.837 222.199 208.332 223.722C208.922 225.538 208.895 226.566 209.975 228.195C211.94 231.157 212.868 234.574 214.694 237.594C216.456 240.506 218.148 242.654 219.3 245.907C219.961 247.771 221.003 249.426 221.925 251.141C222.359 251.95 222.812 252.747 223.201 253.585C223.898 255.083 224.144 255.064 223.178 256.322ZM167.429 281.239C166.183 282.219 164.348 280.573 163.138 280.55C162.612 280.54 162.09 280.99 161.739 280.978C160.682 280.943 159.818 280.164 158.846 279.801C154.355 278.124 149.001 278.06 145.165 274.654C137.544 267.888 141.178 254.312 142.566 245.517C142.849 243.723 143.357 241.239 142.037 239.771C140.591 238.16 138.415 239.121 137.09 240.424C135.732 241.759 134.808 243.63 133.679 245.19C131.88 247.674 129.916 250.022 127.933 252.328C120.887 260.52 113.425 269.893 104.709 275.904C101.083 278.405 97.8025 281.794 93.8289 283.7C89.0494 285.992 93.9561 277.143 94.8156 275.705C100.441 266.294 108.63 258.844 115.509 250.583C116.806 249.024 118.65 246.922 118.673 244.676C118.708 241.303 115.994 241.606 113.849 242.542C111.842 243.418 110.837 245.598 109.222 247.088C107.212 248.942 104.864 250.446 102.626 251.943C97.8014 255.171 92.6789 257.88 87.5726 260.521C85.1839 261.756 82.7838 262.965 80.3836 264.174C79.7249 264.506 75.7875 267.248 75.9757 264.897C76.0015 264.581 78.5133 261.232 78.8234 261.108C80.3698 260.487 81.1367 262.361 82.5128 259.905C83.4908 258.162 83.6266 257.257 85.0073 255.934C85.242 255.709 85.4037 255.14 85.5941 254.77C85.5705 254.91 86.6199 253.789 86.4191 253.984C86.6946 253.717 87.0951 253.227 87.3188 252.906C88.3981 251.359 90.4726 251.329 91.411 249.561C91.7688 248.888 91.5657 248.024 91.9972 247.356C92.6013 246.419 93.9308 246.02 94.6401 245.195C95.2482 244.486 95.7493 243.908 96.1267 243.475C96.3867 243.177 96.8429 242.967 97.1507 242.626C97.9159 241.776 97.856 241.022 98.9273 240.308C99.8892 239.666 100.332 240.267 100.664 238.678C101.835 239.502 101.688 238.296 102.163 237.433C102.781 236.31 103.566 235.809 104.417 234.996C106.291 233.208 108.046 230.545 109.64 228.293C113.604 222.694 116.81 216.147 117.99 209.121C118.273 207.441 118.429 205.744 118.541 204.041C118.601 203.145 118.334 200.964 118.84 200.086C119.624 198.725 121.113 199.265 122.246 198.669C122.631 198.467 123.011 197.87 123.372 197.734C123.877 197.545 124.496 197.73 125.02 197.547C125.224 197.476 125.271 196.818 125.608 196.734C126.268 196.568 126.925 196.832 127.578 196.842C129.007 196.863 130.418 196.586 131.788 196.086C133.035 195.631 134.079 194.588 135.322 194.213C135.195 194.251 137.373 194.441 137.255 194.307C137.36 193.718 137.464 193.129 137.568 192.54C138.395 193.174 141.214 194.01 142.088 193.865C143.493 193.633 143.197 192.242 144.389 194.068C145.063 193.423 145.738 192.777 146.412 192.131C146.923 194.485 150.441 193.342 152.037 193.473C154.284 193.657 156.054 193.193 158.102 194.052C160.593 195.098 162.778 196.201 165.46 196.486C167.335 196.684 168.115 197.652 169.951 198.249C172.419 199.051 172.614 199.935 171.842 202.704C171.216 204.949 170.675 206.68 171.589 208.983C173.212 213.067 177.62 214.75 180.462 217.572C173.804 222.702 167.231 227.749 160.795 233.215C158.099 235.505 155.231 237.799 153.695 241.243C152.279 244.423 151.475 248.243 150.623 251.647C148.668 259.45 154.175 264.701 159.833 268.134C161.003 268.843 169.066 279.954 167.429 281.239ZM156.449 290.671C156.051 289.17 156.103 288.77 157.423 288.231C157.923 288.028 159.837 287.761 160.147 288.514C160.849 290.222 157.161 290.199 156.449 290.671ZM212.55 181.919C213.023 185.249 213.489 188.58 213.911 191.917C214.143 193.762 214.671 195.393 213.42 196.784C212.71 197.574 210.985 197.868 210.077 198.289C208.768 198.896 207.492 199.592 206.233 200.315C203.988 201.606 201.642 202.384 199.426 203.547C198.463 204.053 197.892 205.049 197.057 205.736C195.916 206.676 194.527 207.133 193.35 208.028C191.245 209.627 189.315 211.521 187.211 213.131C184.828 214.956 184.331 214.369 182.992 211.673C181.791 209.253 180.348 208.149 178.618 206.251C177.945 205.513 175.537 201.308 177.582 200.945C178.106 200.852 179.917 201.717 180.328 201.994C180.951 202.414 181.948 204.801 182.455 204.842C183.368 204.915 184.537 202.061 185.106 201.31C188.835 196.381 192.938 191.506 197.259 187.195C199.499 184.961 201.852 182.925 204.391 181.121C206.197 179.839 207.773 178.042 209.553 176.825C209.93 176.467 210.357 176.211 210.835 176.058C211.764 175.595 212.113 175.994 211.882 177.257C212.414 178.493 212.357 180.555 212.55 181.919ZM130.977 177.555C131.883 176.541 133.028 175.731 133.819 174.601C134.265 173.964 134.558 172.823 135.069 172.41C135.957 171.692 137.228 172.023 138.261 171.06C139.259 170.129 140.135 169.014 141.11 168.048C143.223 165.955 145.403 164.031 147.476 161.9C148.653 160.69 149.889 159.119 150.936 158.319C151.213 158.108 151.524 157.792 151.819 157.629C152.449 157.28 152.763 157.635 153.684 157.31C154.292 157.096 154.727 156.25 155.215 155.85C156.376 154.898 157.888 154.521 159.005 153.605C160.123 152.689 160.66 151.267 162.198 150.503C164.058 149.579 165.452 150.309 166.796 148.543C167.344 147.823 167.494 146.915 168.355 146.461C169.392 145.913 170.303 146.495 171.294 145.872C171.961 145.452 172.417 144.572 173.107 144.113C174.341 143.293 175.706 143.206 176.86 142.191C177.834 141.335 177.294 141.422 178.447 141.061C178.954 140.902 179.516 140.834 180.058 140.631C181.792 139.982 184.623 139.187 185.65 137.381C186.172 138.216 186.35 138.385 187.196 138.126C187.64 137.729 188.048 137.293 188.419 136.817C188.691 137.194 188.983 137.217 189.294 136.884C191.124 136.194 192.803 135.007 194.605 134.349C194.861 134.5 195.116 134.652 195.371 134.803C195.727 134.824 195.871 134.634 195.803 134.231C196.513 134.088 197.329 133.746 197.983 133.434C199.236 132.834 200.62 131.41 202.096 131.919C204.561 132.771 204.679 138.291 205.104 140.479C206.152 145.87 207.207 151.26 208.26 156.65C208.688 158.844 209.064 161.054 209.628 163.21C209.996 164.619 210.913 166.697 210.583 168.195C210.177 170.032 208.544 170.63 207.179 171.48C205.298 172.651 203.479 173.949 201.699 175.297C194.141 181.021 188.506 188.893 183.147 196.968C182.154 195.385 179.494 193.16 177.837 192.446C176.676 191.947 175.631 192.349 174.475 191.74C173.651 191.305 172.967 190.454 172.187 189.906C167.428 186.56 161.684 183.794 156.168 182.466C144.851 179.741 133.771 183.961 122.798 185.963C125.025 182.602 128.354 180.484 130.977 177.555ZM206.733 86.3494C208.669 79.4194 211.931 72.7102 216.573 67.5113C218.913 64.8903 221.664 62.5995 224.747 61.1423C227.429 59.8755 230.619 58.6605 230.577 62.7342C230.486 71.578 228.626 80.3213 228.399 89.179C228.177 97.8591 229.501 104.826 234.286 111.821C231.254 112.594 228.224 113.378 225.203 114.2C222.91 114.824 220.531 115.525 218.361 115.954C216.216 116.377 214.243 116.653 212.122 117.449C210.693 117.986 208.452 119.626 206.905 119.269C204.334 118.678 204.942 108.55 204.811 106.117C204.439 99.2448 204.885 92.9631 206.733 86.3494ZM253.733 99.6926C257.246 95.0111 260.896 89.549 266.807 88.6794C272.522 87.8388 274.628 95.364 274.265 100.438C274.142 102.155 273.909 106.613 272.773 108.004C271.516 109.543 269.286 108.383 267.689 108.146C260.796 107.121 253.729 108.831 246.817 108.831C249.122 105.784 251.439 102.749 253.733 99.6926ZM282.015 118.364C284.412 118.741 286.327 119.142 285.169 122.138C282.852 128.139 281.071 133.867 283.102 140.408C284.653 145.404 289.564 151.469 294.472 152.47C296.191 152.821 298.779 152.193 299.835 154.111C300.777 155.819 299.757 160.942 299.646 162.838C299.238 169.904 297.59 176.915 293.424 182.468C289.718 187.408 285.195 191.274 279.803 186.611C275.259 182.681 272.576 175.65 271.231 169.641C270.513 166.433 270.426 163.233 270.289 159.955C270.168 157.056 269.664 155.217 272.65 154.616C273.451 154.456 275.45 154.506 275.453 153.164C275.458 151.362 273.289 152.038 272.46 151.947C269.262 151.596 270.76 147.512 271.058 144.871C271.566 140.374 272.388 135.927 273.143 131.475C273.785 127.683 273.819 122.714 275.215 119.168C276.029 117.098 280.415 118.112 282.015 118.364ZM287.903 131.681C288.267 129.237 288.461 126.182 290.67 124.831C293.097 123.346 294.312 125.765 295.511 127.741C298.688 132.984 302.204 137.89 302.725 144.399C302.787 145.175 303.09 146.733 302.409 147.27C302.105 147.51 301.378 146.878 300.908 146.915C298.391 147.114 296.571 147.855 294.103 146.294C289.275 143.241 287.025 137.579 287.903 131.681ZM306.889 146.321C306.37 140.63 303.976 135.583 301.301 130.778C299.983 128.409 297.422 125.819 296.512 123.317C296.025 121.976 296.888 120.316 298.661 120.89C299.544 121.177 301.244 123.748 301.835 124.638C303.351 126.924 304.607 129.474 305.807 131.971C307.089 134.639 310.733 144.431 306.889 146.321ZM290.993 89.649C291.274 84.2945 291.302 78.1456 294.461 73.7019C296.909 70.2562 301.391 68.756 305.027 67.424C309.926 65.629 315.81 65.352 320.933 65.932C325.443 66.443 328.846 69.8135 331.628 73.5197C334.458 77.2886 336.651 82.1416 338.597 86.5271C339.083 87.6244 343.214 94.6645 340.42 94.5006C339.312 94.4355 338.349 92.0599 337.5 91.3585C336.835 90.8089 336.048 90.8772 335.452 90.4377C334.812 89.9665 334.951 89.5307 334.455 88.9488C331.043 84.9478 327.903 87.2519 324.222 89.3593C324.05 87.9634 324.352 85.3703 323.289 84.3501C321.898 83.015 320.444 85.13 319.446 86.1672C318.538 87.1121 317.418 88.8337 316.274 89.3448C314.789 90.0082 315.294 89.303 314.003 88.7458C311.405 87.6238 309.407 90.9443 308.094 92.8752C307.604 93.5956 306.802 95.4139 305.925 95.6087C305.076 95.7966 304.965 95.1331 304.234 94.8877C302.165 94.1952 301.593 95.8149 300.934 97.8262C300.192 100.088 299.561 102.267 298.463 104.379C296.522 108.117 295.687 109.347 297.223 113.474C294.98 113.84 294.509 114.133 293.397 111.948C292.251 109.696 291.954 107.827 292.026 105.239C292.176 99.8248 290.704 95.1483 290.993 89.649ZM343.065 115.266C345.413 119.922 346.905 126.402 346.881 131.707C346.868 134.339 346.728 137.576 345.609 139.963C344.534 142.254 342.287 143.401 340.216 144.377C335.226 146.731 329.603 146.703 324.356 145.654C321.632 145.109 318.983 145.461 316.653 143.664C314.899 142.312 312.784 140.998 312.27 138.518C312.055 137.48 312.387 136.61 312.318 135.592C312.403 135.107 312.371 134.635 312.223 134.173C311.916 133.979 311.608 133.791 311.296 133.608C311.051 132.834 311.521 131.972 311.401 131.164C311.256 130.189 310.518 129.395 310.173 128.511C309.224 126.074 309.902 124.711 311.679 123.055C312.104 122.688 312.532 122.324 312.963 121.964C313.349 121.293 313.776 121.29 314.243 121.955C315.089 121.968 315.065 122.254 315.955 121.969C317.904 121.346 319.54 119.068 321.45 118.268C322.192 117.957 323.299 118.221 323.902 117.648C324.44 117.135 324.094 116.06 324.568 115.556C326.078 113.948 328.455 115.473 329.852 113.134C330.992 111.227 330.751 108.52 330.868 106.354C334.369 107.089 335.885 110.772 338.762 112.625C339.331 110.204 339.414 110.276 341.61 109.612C340.615 111.632 342.224 113.599 343.065 115.266ZM345.744 89.5623C346.389 90.4743 346.882 92.7392 345.744 92.9581V89.5623ZM348.733 97.8002C354.079 97.8123 357.495 105.232 359.056 109.828C360.753 114.826 362.54 121.493 359.374 126.361C358.16 128.227 356.67 128.399 354.717 128.156C352.363 127.865 351.156 127.491 352.077 124.729C353.803 119.553 352.505 112.974 349.446 108.641C353.653 107.749 350.986 103.512 348.875 101.926C346.408 100.075 344.415 97.7901 348.733 97.8002ZM226.688 366.028C225.43 369.69 224.152 373.341 223.097 377.115C222.096 380.69 222.676 384.72 221.432 388.158C220.667 387.742 220.448 387.004 219.783 386.556C219.373 386.278 218.659 386.169 218.307 385.863C217.702 385.339 216.234 383.388 215.837 382.632C214.463 380.013 215.38 375.757 216.114 373.067C217.023 369.734 218.575 366.535 220.66 363.909C222.123 362.069 222.93 362.655 224.885 363.561C226.042 364.097 227.232 364.439 226.688 366.028ZM217.16 394.922C216.156 397.153 214.299 398.992 213.196 401.242C212.039 403.603 211.163 406.263 209.687 408.423C208.184 410.624 206.834 410.256 204.765 411.205C204.023 411.545 203.71 412.177 203.112 412.67C201.992 413.592 200.763 414.158 199.585 414.979C198.747 412.722 196.188 401.393 192.931 401.636C190.1 401.846 191.548 407.777 191.913 409.528C192.221 411.006 192.574 412.507 193.044 413.935C193.518 415.376 194.995 417.535 194.448 419.115C193.754 421.123 192.026 420.99 191.161 419.526C190.437 418.301 190.069 416.636 189.536 415.303C189.067 414.131 186.923 407.716 185.07 408.711C183.286 409.669 186.062 415.888 186.527 417.11C187.648 420.059 189.8 422.894 186.956 425.257C182.64 428.845 177.325 431.546 172.489 434.133C169.667 435.643 167.129 437.628 164.166 438.854C161.415 439.992 158.235 440.187 155.575 441.495C154.92 441.818 155.359 442.219 154.403 442.406C153.601 442.562 152.2 442.141 151.34 442.15C149.916 442.165 148.488 442.284 147.067 442.088C146.266 441.977 144.443 441.014 144.731 442.604C143.598 442.259 143.16 441.004 142.333 440.219C141.597 439.52 140.656 439.141 139.834 438.592C138.135 437.456 136.863 436.162 136.353 433.998C135.156 428.917 137.687 423.629 140.811 420.087C142.603 418.055 144.707 416.365 146.351 414.176C146.928 413.408 147.338 412.516 148.071 411.892C148.967 411.128 150.197 411.033 151.065 410.259C151.711 409.683 151.904 408.765 152.581 408.237C153.583 407.456 154.755 407.78 155.701 406.755C156.24 406.169 158.093 403.412 157.963 402.648C158.47 402.834 158.978 403.021 159.485 403.207C159.793 401.508 162.463 399.412 163.78 398.598C164.446 398.186 165.743 398.206 166.239 397.764C166.898 397.174 166.844 395.938 167.367 395.198C168.867 393.077 172.006 392.125 173.992 390.648C176.52 388.769 178.975 386.64 181.257 384.415C185.872 379.919 189.94 374.695 193.263 368.987C194.602 366.688 195.844 364.344 196.797 361.824C197.384 360.273 197.97 357.516 199.419 356.616C200.916 355.687 204.353 356.945 206.03 357.078C208.492 357.273 212.33 357.152 214.537 358.48C216.896 359.901 214.978 361.075 213.764 362.768C211.986 365.246 210.921 368.28 210.033 371.254C209.35 373.54 209.222 375.754 208.775 378.059C208.303 380.496 208.307 383.787 209.401 386.026C210.485 388.243 218.291 392.414 217.16 394.922ZM124.095 439.857C118.794 431.933 123.182 420.335 128.368 413.932C134.624 406.206 143.529 401.861 150.842 395.579C159.3 388.314 167.986 381.566 175.48 373.045C179.279 368.727 182.586 364.072 185.585 359.053C188.131 354.792 189.979 349.115 195.123 348.499C192.089 352.652 191.911 358.635 189.565 363.258C187.082 368.154 183.42 372.226 179.691 375.989C171.817 383.935 163.312 391.215 154.807 398.317C150.466 401.942 146.245 405.73 141.918 409.373C138.044 412.635 133.973 415.426 131.741 420.398C127.888 428.975 127.658 441.682 136.189 446.966C131.794 446.004 126.849 443.973 124.095 439.857ZM586.261 82.5489C584.692 79.1038 581.753 77.8768 578.802 76.529C575.913 75.2103 573.273 73.5855 570.069 73.1637C568.645 72.9758 564.627 73.4419 564.44 71.1752C564.283 69.2866 568.481 67.3911 569.449 65.9522C570.883 63.8195 571.857 60.3568 571.301 57.6631C570.774 55.1085 568.511 54.3015 566.398 53.8385C559.826 52.3997 552.838 53.4578 546.249 54.0491C547.056 52.8108 548.193 51.795 548.839 50.3119L549.884 52.6963C550.479 51.3327 551.124 49.9944 551.863 48.7174C552.364 49.3347 552.865 49.9526 553.365 50.5699C552.533 47.3639 555.331 47.3804 555.037 44.6778C554.922 43.6267 554.274 43.1662 554.115 42.3213C553.802 40.6414 554.983 39.5909 553.639 38.0331C552.142 36.2982 549.695 36.9864 547.953 37.1483C547.735 37.1692 547.418 37.6441 547.135 37.6827C546.743 37.7371 546.518 37.1451 546.033 37.1767C544.735 37.2609 543.59 38.3683 542.299 38.7048C536.317 40.2645 530.333 43.0461 524.591 45.643C518.746 48.2867 513.007 51.3649 507.911 55.5139C502.457 59.9545 498.517 65.6632 494.161 71.2877C492.113 73.9308 489.995 76.4689 488.437 79.5143C487.631 81.0879 486.903 86.0306 485.453 86.7491C483.879 87.5296 479.92 85.3229 478.31 84.9156C474.52 83.958 470.747 83.5583 466.861 83.7506C463.771 83.9024 460.51 83.8119 457.445 84.2268C455.665 84.4678 451.231 86.6353 450.947 89.0589C450.821 90.136 451.945 91.0316 452.197 92.041C452.578 93.5678 451.948 95.185 452.387 96.7149C453.282 99.8343 457.438 100.982 459.886 101.964C466.723 104.708 473.652 106.835 480.559 109.291C483.56 110.359 486.126 112.058 488.845 113.764C491.099 115.179 493.156 116.593 490.879 119.249C488.721 121.765 488.991 122.78 489.633 126.246C490.311 129.904 490.546 133.602 491.429 137.224C492.308 140.831 493.951 144.277 493.632 148.093C493.311 151.897 491.878 155.804 490.537 159.29C489.183 162.812 487.688 166.292 486.216 169.757C484.855 172.962 483.381 176.212 480.232 177.58C474.219 180.191 466.538 179.777 460.272 178.829C453.159 177.753 445.812 175.927 439.086 173.141C432.618 170.463 425.505 166.354 420.156 161.499C417.298 158.907 414.204 156.986 411.172 154.665C408.098 152.313 405.765 149.142 403.072 146.326C397.796 140.808 391.3 137.006 384.614 133.972C377.098 130.562 369.337 130.916 361.372 130.547C362.626 127.843 364.24 125.258 364.832 122.247C365.449 119.111 365.002 115.704 364.611 112.572C363.852 106.474 362.415 101.107 358.909 96.183C357.306 93.9308 355.434 92.1751 352.764 91.8481C351.146 91.6495 348.156 93.0137 346.988 91.5091C346.474 90.8456 346.594 89.4504 346.27 88.6332C345.984 87.9078 345.407 87.1779 345.095 86.3899C343.758 83.0213 342.089 80.0443 340.424 76.8484C339.761 75.5778 339.248 73.7019 338.344 72.6324C337.853 72.0505 337.221 71.7861 336.945 71.3605C336.431 70.5642 336.194 69.1083 335.765 68.2095C335.031 66.6713 334.096 65.242 333.018 63.9726C331.294 61.9436 329.076 60.1531 326.713 59.1424C325.401 58.5808 324.439 58.448 323.068 58.5302C322.667 58.5542 322.22 58.8085 321.819 58.775C320.857 58.6946 321.008 58.3164 320.238 58.1406C315.084 56.9623 308.173 58.6156 303.338 60.6452C298.246 62.7829 294.11 65.6018 291.015 70.6673C283.414 83.108 285.185 99.1714 288.41 112.874C286.46 112.312 284.517 111.646 282.548 111.17C281.342 110.878 279.697 110.933 278.62 110.234C276.224 108.679 278.172 104.69 278.187 102.112C278.224 95.5619 275.409 85.3191 269.269 82.5527C262.871 79.6699 255.087 87.7617 251.132 92.3503C248.595 95.2938 246.288 98.4662 243.86 101.516C242.163 103.647 239.923 107.046 236.949 106.488C230.462 105.274 232.44 91.7247 232.728 87.145C233.184 79.9051 234.154 72.5495 234.16 65.2913C234.163 60.8792 233.468 54.927 228.533 54.4097C221.741 53.6981 215.306 60.4807 211.346 65.6992C200.9 79.4599 198.593 97.6485 201.387 114.916C201.797 117.448 203.104 120.57 200.609 122.142C197.331 124.207 193.14 125.458 189.618 126.974C181.74 130.362 174.445 134.883 167.028 139.302C159.686 143.676 152.46 148.019 145.836 153.656C139.232 159.274 132.695 165.228 126.679 171.599C123.68 174.774 120.787 178.087 118.057 181.544C115.488 184.796 113.408 188.489 110.616 191.529C108.715 193.599 105.219 196.374 104.802 199.531C104.464 202.079 108.379 203.846 110.146 205.023C111.357 205.831 112.196 205.806 112.283 207.246C112.392 209.042 110.668 211.919 110.054 213.631C108.49 217.998 106.446 221.615 103.76 225.249C97.8083 233.299 90.6165 240.124 83.7905 247.275C77.4478 253.92 71.2329 260.459 66.5839 268.704C65.4448 270.724 62.6097 274.873 65.3038 276.763C66.0011 277.253 68.1406 277.64 68.8506 277.114C69.7302 276.463 69.2843 275.482 70.3239 274.829C70.0633 277.024 79.1433 272.734 79.8497 272.337C81.758 271.263 83.4839 270.005 85.4347 269.043C86.579 268.478 86.7177 267.692 87.6036 267.062C88.0771 266.725 88.0828 267.177 88.7168 266.968C89.2875 266.778 90.6268 266.706 91.0525 266.102C91.0641 266.085 91.5289 264.624 91.1337 264.927C92.6806 263.745 93.5948 265.533 92.6663 267.213C89.9209 272.177 86.4496 275.828 85.3738 281.793C84.9831 283.96 84.3164 287.982 85.521 289.957C85.5648 290.029 85.9703 289.819 86.0198 289.896C86.0658 289.969 86.5077 290.643 86.6895 290.835C87.7538 291.953 87.6853 292.452 89.4618 292.405C90.25 292.384 91.8211 292.273 92.5426 291.882C93.0851 291.588 93.3503 290.864 93.7674 290.606C94.1897 290.344 94.1396 290.208 94.536 290.056C94.6171 290.024 94.773 290.785 94.9272 290.754C95.7735 290.578 96.1382 290.023 96.8573 289.576C98.9296 288.288 100.961 286.873 102.934 285.575C104.92 284.271 106.404 282.45 108.382 280.934C110.484 279.324 112.203 278.089 113.819 275.854C114.938 274.306 116.274 273.743 117.025 272.981C117.917 272.076 119.453 268.584 120.89 268.169C121.545 267.979 122.068 268.615 122.427 268.355C122.83 268.062 122.39 267.5 122.593 267.17C122.971 266.554 123.018 266.451 123.661 265.887C124.484 265.164 125.495 264.97 126.186 264.028C126.954 262.98 127.059 261.805 128.005 260.823C130.278 258.462 132.302 255.973 134.71 253.684C133.78 259.38 132.858 265.035 133.579 270.828C134.278 276.442 136.448 278.956 140.707 281.805C141.645 282.433 142.629 283.345 143.636 283.79C144.248 284.061 145.169 283.899 145.626 284.098C147.17 284.77 146.645 286.147 146.857 287.697C147.185 290.101 149.198 291.951 150.496 293.824C151.589 295.4 153.558 298.983 155.386 299.527C157.036 300.018 158.593 297.899 159.967 296.997C162.039 295.636 164.297 294.661 166.482 293.549C170.75 291.378 174.874 288.787 179.094 286.491C181.022 285.442 182.969 285.015 185.009 284.338C187.46 283.524 189.551 281.968 191.902 280.907C196.128 278.997 200.178 276.719 204.378 274.714C213.073 270.565 222.555 267.715 230.292 261.49C233.792 258.673 238.298 258.374 241.748 255.637C245.343 252.784 243.138 248.421 241.599 244.92C237.393 235.355 234.883 225.423 229.094 216.71C226.085 212.182 223.306 207.504 220.683 202.692C218.362 198.432 218.409 193.608 217.827 188.797C217.437 185.581 217.072 182.353 216.595 179.151C216.293 177.116 215.317 174.553 216.497 172.709C217.765 170.727 220.776 169.883 222.68 168.838C225.045 167.539 227.335 166.141 229.789 165.041C235.396 162.528 241.303 160.789 247.185 159.254C248.939 158.796 256.447 155.523 257.876 157.44C256.121 158.729 255.609 161.068 254.821 163.073C253.649 166.061 252.438 168.908 251.583 172.039C249.815 178.513 248.311 185.09 246.87 191.659C245.439 198.182 243.733 204.756 243.295 211.475C243.072 214.905 243.225 218.338 243.219 221.771C243.214 225.435 242.522 229.03 242.645 232.703C242.728 235.145 242.915 238.08 244.218 240.164C245.425 242.095 247.478 242.31 249.268 243.343C251.629 244.705 252.554 245.287 252.576 248.251C252.601 251.706 252.398 255.099 252.692 258.552C253.718 270.576 257.397 284.845 264.74 294.128C265.229 294.746 279.477 314.477 281.054 311.589C282.141 313.001 283.765 313.518 285.102 314.749C287.203 316.685 289.265 318.232 291.002 320.629C294.165 324.991 296.853 330.103 297.644 335.68C298.323 340.48 297.915 346.219 295.449 350.38C292.976 354.553 287.688 357.291 283.696 359.346C278.449 362.047 273.124 362.35 267.427 361.674C264.616 361.34 261.827 360.818 259.036 360.325C257.875 360.12 256.521 360.119 255.422 359.639C254.243 359.125 253.844 358.556 252.668 358.492C251.789 358.444 251.308 358.658 250.379 358.445C249.229 358.181 247.981 357.702 246.834 357.378C245.559 357.017 244.513 356.504 243.337 355.843C242.25 355.231 241.024 355.112 239.977 354.532C238.172 353.532 237.616 351.86 235.174 352.787C232.597 353.765 233.136 356.213 231.491 357.891C230.029 359.383 228.218 358.003 226.763 357.117C224.622 355.811 222.398 354.725 220.118 353.737C217.655 352.669 215.139 351.741 212.576 351.006C209.773 350.202 206.693 350.042 203.993 348.872C201.62 347.845 200.598 345.856 198.879 343.999C197.071 342.044 194.617 341.3 192.11 341.474C187.545 341.791 184.428 347.21 182.016 350.973C175.279 361.485 167.832 370.442 158.826 378.7C154.523 382.644 149.673 386 145.512 390.094C143.756 391.821 142.482 393.44 140.404 394.726C137.673 396.415 135.195 398.534 132.585 400.439C122.376 407.888 114.887 418.74 117.711 432.91C118.982 439.288 121.52 443.765 126.263 447.603C128.416 449.345 130.386 450.794 133.129 450.694C135.719 450.598 138.005 450.5 136.479 447.116C138.412 447.773 140.03 449.395 142.14 450.225C144.571 451.181 147.734 451.777 150.315 451.835C154.448 451.928 159.31 449.536 162.929 448.521C163.941 448.238 165.891 447.774 167.044 446.73C167.961 445.9 167.762 444.917 169.15 444.523C170.968 444.006 171.661 444.61 173.402 443.4C175.929 441.644 178.669 440.601 181.29 438.982C184.821 436.802 188.215 434.343 191.713 432.097C192.179 433.509 194.92 441.895 196.613 437.853C198.086 434.332 193.304 431.319 196.211 427.756C198.984 424.358 199.564 427.93 202.254 429.508C205.989 431.698 205.429 427.607 204.343 425.184C203.909 424.215 202.996 422.754 203.264 421.624C203.783 419.441 205.391 420.722 206.656 420.945C208.647 421.296 210.257 420.694 211.752 419.228C212.998 418.005 215.06 416.948 215.814 415.336C216.191 414.529 216.257 413.42 216.57 412.563C216.984 411.434 217.279 411.708 217.429 410.307C217.285 409.582 217.228 408.848 217.257 408.106C217.584 408.033 217.91 407.96 218.236 407.888C218.246 407.836 218.269 406.423 218.138 406.633C218.442 406.147 219.098 405.941 219.475 405.266C219.821 404.645 219.499 403.455 219.638 402.722C219.92 401.238 220.689 400.04 221.317 398.717C222.647 404.893 222.262 411.334 223.532 417.513C224.576 422.586 226.952 427.134 229.724 431.293C231.008 433.221 232.709 434.589 234.054 436.421C235.192 437.972 235.761 439.337 237.441 440.254C238.558 440.862 239.815 441.176 240.967 441.701C241.703 442.038 243.379 443.586 244.07 443.559C243.468 443.583 245.201 443.642 244.799 443.566C244.829 443.572 244.594 442.738 244.803 442.752C247.315 445.363 249.939 445.37 252.846 446.993C254.178 447.736 254.676 447.69 256.096 447.965C257.935 448.321 259.483 449.474 261.244 449.596C263.956 449.785 267.009 450.185 269.836 450.075C270.605 450.045 272.051 449.501 272.654 450.24C273.052 450.727 272.297 454.252 272.249 455.059C271.752 463.523 272.782 472.41 276.035 480.155C278.732 486.577 281.608 494.174 286.379 499.078C291.666 504.514 299.073 508.345 306.145 509.811C313.976 511.434 321.737 510.219 329.592 509.714C337.561 509.202 344.934 507.961 352.62 505.424C359.767 503.066 366.537 499.992 373.375 496.75C378.027 494.545 383.924 491.371 381.486 484.678C380.896 483.06 378.61 478.56 376.587 480.78C374.797 482.744 377.789 486.462 379.143 487.71C368.937 495.524 356.551 498.109 344.609 500.878C338.05 502.398 331.588 502.334 324.917 502.355C319.264 502.373 313.611 502.551 307.994 501.684C302.913 500.9 296.997 499.429 293.215 495.35C289.26 491.083 285.517 485.987 282.817 480.664C279.855 474.821 279.136 468.504 278.896 461.915C278.77 458.447 278.629 454.934 278.959 451.474C279.199 448.962 280.367 448.664 280.947 446.679C282.285 448.738 283.167 447.977 284.811 446.774C285.873 450.031 285.4 453.415 285.217 456.774C285.039 460.047 285.437 463.364 285.801 466.614C286.421 472.138 288.831 477.899 291.889 482.346C293.272 484.357 295.344 485.206 297.218 486.594C299.608 488.365 302.087 490.013 304.581 491.602C309.279 494.594 314.406 497.152 319.7 497.603C321.556 497.761 322.904 498.822 325.115 498.674C326.427 498.586 327.748 498.092 329.058 498.132C330.37 498.171 331.497 498.632 332.845 498.524C338.446 498.079 344.22 496.065 349.766 494.958C355.771 493.76 361.812 492.47 367.545 490.105C370.028 489.08 372.079 487.758 373.466 485.182C374.456 483.342 374.196 480.043 376.042 478.942C374.833 477.23 375.283 476.928 376.327 475.397C376.814 474.684 378.387 472.795 376.479 472.829C377.059 470.071 376.089 467.405 375.675 464.707C375.497 463.542 375.545 461.778 374.889 460.775C374.506 460.19 373.869 460.179 373.526 459.748C373.172 459.739 372.896 459.577 372.697 459.263C372.674 458.803 372.87 458.522 373.286 458.421C373.19 457.509 373.804 457.837 373.19 456.411C372.351 454.465 370.761 452.771 369.255 451.448C367.972 450.32 367.027 448.318 365.546 447.717C363.619 446.934 361.598 446.083 359.572 445.356C354.981 443.708 350.43 443.078 345.613 443.991C343.406 444.41 341.233 444.924 339.102 445.673C337.855 446.111 335.948 447.294 334.844 446.019C334.465 445.581 333.673 441.863 333.722 441.461C333.92 439.848 336.919 439.197 338.013 438.634C339.686 437.774 342.782 436.855 343.844 435.148C344.289 434.432 343.786 431.393 343.859 431.338C344.561 430.82 347.505 438.2 348.307 438.703C349.467 439.431 352.725 438.469 353.924 438.325C357.501 437.893 361.136 437.648 364.639 436.711C371.357 434.915 377.953 432.136 384.49 429.681C396.926 425.01 408.932 418.855 420.112 411.209C425.334 407.637 430.521 403.073 434.494 397.887C436.286 395.548 437.552 392.774 439.381 390.481C441.493 387.835 440.827 385.448 441.773 382.134C443.689 375.427 446.015 369.333 447.058 362.304C448.132 355.067 448.575 347.677 448.277 340.35C447.689 325.868 447.049 312.138 441.253 298.831C435.94 286.637 429.057 274.723 420.874 264.627C418.971 262.28 416.961 260.045 414.624 258.22C412.109 256.254 409.34 254.713 407.062 252.391C405.194 250.486 403.63 248.242 401.676 246.433C399.276 244.214 396.422 243.234 393.612 241.817C390.917 240.459 388.46 238.693 385.705 237.457C384.029 236.705 382.331 236.011 380.583 235.486C379.291 235.099 377.575 235.075 376.394 234.338C374.525 233.172 372.613 229.78 371.392 227.865C369.611 225.069 368.646 221.817 367.799 218.567C366.768 214.613 365.81 210.635 364.802 206.674C364.457 205.32 363.17 200.609 365.737 201.752C366.488 202.087 367.193 203.573 367.772 204.208C368.868 205.414 370.223 206.491 371.583 207.311C373.778 208.632 376.063 210.224 378.168 211.135C380.023 211.938 381.93 213.512 383.659 214.644C383.922 214.816 383.999 215.408 384.337 215.573C385.134 215.961 385.665 214.89 386.417 215.152C387.446 215.511 387.615 216.575 388.185 217.421C389.013 218.648 389.441 218.746 390.705 219.377C392.11 220.079 393.142 221.468 394.513 222.156C396.177 222.991 399.842 222.343 400.092 225.223C402.679 223.368 405.924 226.971 407.539 228.84C409.164 226.1 412.043 229.308 414.503 228.399C413.142 230.476 413.389 230.27 415.537 230.527C417.35 230.744 418.435 232.066 420.227 232.834C421.468 233.365 422.839 234.26 424.129 234.634C425.349 234.989 426.272 234.194 427.334 234.393C428.066 234.529 428.762 235.225 429.459 235.415C430.342 235.657 431.6 235.949 432.598 236.209C433.812 236.526 435.021 236.235 436.232 236.487C437.645 236.781 438.865 237.705 440.3 238.005C441.899 238.339 443.563 238.116 445.153 238.542C446.603 238.93 447.484 239.377 448.986 239.393C451.226 239.417 453.725 239.742 455.937 239.465C457.114 239.317 457.767 238.661 459.1 239.302C459.989 239.73 460.521 241.05 461.733 240.445C460.454 239.882 461.576 237.691 462.987 239.369C463.32 238.428 463.536 237.902 464.463 237.593C464.417 238.515 464.28 239.44 465.35 239.633C465.432 238.992 465.514 238.351 465.596 237.71C467.923 239.654 468.473 240.341 470.669 237.968C470.61 238.744 470.312 239.623 471.031 240.174C471.491 239.333 471.952 238.493 472.412 237.653C473.19 240.364 476.903 239.429 478.703 238.948C479.4 238.762 481.329 238.467 481.784 237.839C482.1 237.403 482.061 237.062 482.178 236.796C482.281 236.558 481.099 235.975 482.105 235.634C482.864 235.377 483.455 237.203 484.345 237.13C485.139 237.066 485.46 235.589 486.031 235.29C486.086 235.262 486.474 235.885 486.742 235.749C487.159 235.537 487.398 234.978 487.858 234.78C488.857 234.351 490.148 234.458 491.266 233.949C492.684 233.304 494.113 232.997 495.561 232.466C497.396 231.792 498.228 230.469 499.718 229.386C500.067 229.133 500.43 229.281 500.773 229.101C501.235 228.859 501.72 228.292 502.27 228.025C503.994 227.185 505.468 226.613 507.104 225.455C508.563 224.421 510.489 223.658 511.788 222.418C512.868 221.385 513.452 219.878 514.539 218.828C516.101 217.32 520.135 215.428 519.48 212.482C522.092 212.92 522.731 211.064 523.689 209.016C524.601 207.069 526.47 206.485 527.692 204.709C528.22 203.941 529.07 202.877 529.362 202.001C529.536 201.48 529.1 200.936 529.217 200.58C529.759 198.944 531.849 198.229 532.817 196.753C534.048 194.876 534.443 192.501 535.47 190.572C535.672 190.192 536.169 189.967 536.362 189.562C536.486 189.302 536.228 188.658 536.378 188.402C536.737 187.796 537.299 187.587 537.659 187.025C538.529 185.665 538.688 183.733 539.47 182.191C539.663 181.812 540.334 180.751 540.418 180.525C540.702 179.766 540.616 179.267 540.761 178.423C540.805 178.169 541.252 176.699 541.344 176.489C541.631 175.833 541.908 175.736 542.347 175.017C543.446 173.215 544.128 170.384 544.218 168.197C544.257 167.269 543.976 166.31 544.282 165.425C544.546 164.66 545.359 164.187 545.666 163.386C546.47 161.284 546.339 158.312 546.56 156.064C546.801 153.613 547.515 151.198 547.712 148.765C547.808 147.588 547.304 146.545 547.341 145.436C547.384 144.165 547.984 143.928 548.216 142.871C548.48 141.665 548.093 140.274 548.329 138.98C548.549 137.777 548.868 136.662 548.959 135.428C549.195 132.212 548.862 128.848 548.734 125.63C548.685 124.382 548.533 123.079 548.834 121.857C549.076 120.873 550.065 119.774 550.032 118.707C549.931 115.41 547.53 118.263 546.149 118.037C544.545 117.774 544.249 113.82 543.826 112.32C542.793 108.657 541.759 104.993 540.725 101.33C545.652 99.9216 550.774 100.328 555.804 99.9475C560.747 99.5743 565.572 98.3967 570.365 97.071C574.411 95.9515 578.838 95.3026 582.474 92.9125C585.527 90.9063 588.045 86.4664 586.261 82.5489Z" fill="black"/>
<path fill-rule="evenodd" clip-rule="evenodd" d="M107.842 153.469C109.813 152.345 109.315 150.79 110.763 149.346C118.862 141.266 128.367 134.21 137.893 128.384C147.93 122.245 159.191 119.646 169.45 114.206C170.829 113.475 172.622 112.331 172.107 110.292C171.506 107.911 169.44 109.007 167.967 109.568C163.061 111.442 157.839 112.147 152.863 113.793C142.24 117.305 132.292 123.362 123.293 130.451C118.057 134.575 113.042 139.134 108.571 144.256C106.925 146.141 104.729 148.34 104.301 151.056C103.771 154.417 105.581 154.76 107.842 153.469Z" fill="black"/>
<path fill-rule="evenodd" clip-rule="evenodd" d="M138.521 364.754C138.473 361.784 135.527 362.864 134.011 363.263C127.849 364.887 122.341 366.13 116.887 369.891C106.766 376.869 99.0979 387.471 94.1367 399.203C93.4762 400.764 90.8163 405.712 92.9482 407.185C94.3536 408.157 95.2061 405.328 95.7312 404.278C98.4033 398.933 101.981 394.201 105.578 389.557C113.566 379.245 123.168 372.7 134.656 367.922C136.065 367.336 138.556 366.913 138.521 364.754Z" fill="black"/>
<path fill-rule="evenodd" clip-rule="evenodd" d="M479.091 291.803C476.96 287.095 473.513 281.286 468.744 279.346C466.105 278.273 464.544 280.049 465.327 283.015C465.95 285.375 468.029 286.527 469.582 288.092C473.576 292.118 476.037 298.129 477.495 303.711C479.037 309.612 479.345 316.015 479.318 322.124C479.303 325.35 478.519 328.152 478.093 331.292C477.926 332.525 477.641 335.246 478.933 336.016C481.795 337.724 483.118 328.808 483.41 327.094C484.487 320.77 484.383 314.947 483.476 308.634C482.646 302.861 481.482 297.084 479.091 291.803Z" fill="black"/>
<path fill-rule="evenodd" clip-rule="evenodd" d="M470.903 65.5662C472.068 63.8422 471.218 61.4286 471.565 59.463C471.928 57.4027 473.011 55.3184 473.927 53.5161C475.906 49.6252 478.114 45.8042 480.466 42.1751C482.895 38.4273 485.858 35.2341 488.44 31.6333C489.313 30.4152 490.861 28.6741 490.483 27.208C489.873 24.8342 488.542 25.9912 487.476 26.986C481.649 32.4256 476.519 39.1326 472.374 46.1771C470.407 49.5205 468.548 53.1818 467.898 57.1478C467.562 59.1961 467.559 61.3334 468.112 63.3388C468.46 64.5992 469.504 67.6379 470.903 65.5662Z" fill="black"/>
<path fill-rule="evenodd" clip-rule="evenodd" d="M111.824 355.723C114.743 355.427 117.68 355.321 120.606 355.156C122.772 355.034 125.209 355.181 127.198 354.036C129.198 352.883 128.329 351.157 126.665 350.902C125.709 350.754 124.095 351.464 123.07 351.512C121.96 351.565 120.844 351.527 119.734 351.532C116.487 351.545 112.989 351.518 109.859 352.702C108.837 353.089 107.288 353.686 106.868 354.97C105.969 357.714 110.469 355.861 111.824 355.723Z" fill="black"/>
<path fill-rule="evenodd" clip-rule="evenodd" d="M137.389 104.637C141.63 104.079 145.728 102.684 149.906 101.794C153.877 100.95 154.553 97.5116 149.851 97.6661C148.272 97.7177 133.05 100.888 137.389 104.637Z" fill="black"/>
<path fill-rule="evenodd" clip-rule="evenodd" d="M487.762 277.052C484.914 276.269 486.387 279.739 487.269 280.811C488.899 282.794 489.79 284.28 490.274 286.924C490.557 288.464 490.292 291.94 491.482 293.117C492.654 294.276 492.735 293.506 492.943 292.076C493.53 288.043 492.358 278.316 487.762 277.052Z" fill="black"/>
<path fill-rule="evenodd" clip-rule="evenodd" d="M456.489 57.5296C457.296 56.5905 456.43 52.5068 456.526 51.31C456.642 49.8598 456.954 48.6326 457.348 47.2718C457.54 46.612 458.502 44.2829 457.984 43.5597C457.266 42.5573 456.072 44.2512 455.694 44.918C454.465 47.0881 454.179 50.7065 454.383 53.1501C454.456 54.0348 454.944 59.3261 456.489 57.5296Z" fill="black"/>
<path fill-rule="evenodd" clip-rule="evenodd" d="M288.759 401.898C288.893 399.585 290.922 397.982 290.928 395.522C290.936 392.758 289.241 391.562 287.132 393.358C285.86 394.441 284.869 397.08 283.149 397.425C279.698 398.12 278.344 391.315 274.944 392.102C272.002 392.783 273.548 398.333 274.436 400.205C275.377 402.19 277.086 403.583 276.53 406.024C275.869 408.924 273.603 410.595 274.484 413.904C276.122 420.053 279.679 414.304 281.817 412.371C283.341 410.994 284.262 411.239 285.741 412.589C287.769 414.439 289.318 415.696 291.776 416.942C293.944 418.041 296.036 418.808 296.103 415.12C296.156 412.219 294.161 409.332 292.409 407.364C290.956 405.731 288.611 404.473 288.759 401.898Z" fill="black"/>
<path fill-rule="evenodd" clip-rule="evenodd" d="M250.771 392.725C248.235 389.756 245.031 397.329 242.981 398.167C239.658 399.525 238.894 392.245 235.835 392.474C233.454 392.652 233.642 396.398 234.16 398.107C234.718 399.946 236.388 401.45 236.668 403.334C237.098 406.222 232.12 411.996 235.594 414.786C238.559 417.168 239.664 409.12 243.37 412.404C245.19 414.015 250.283 420.013 252.806 417.028C255.787 413.501 248.696 407.477 247.401 404.794C245.65 401.161 254.488 397.076 250.771 392.725Z" fill="black"/>
<path fill-rule="evenodd" clip-rule="evenodd" d="M312.222 289.569C311.495 289.217 310.32 289.8 309.533 289.763C308.687 289.723 307.807 289.302 306.973 289.146C305.162 288.806 301.976 289.297 300.691 287.525C299.38 285.716 300.377 282.086 299.816 279.887C299.511 278.691 299.159 277.215 297.692 277.748C295.989 278.367 296.03 281.8 295.826 283.305C295.527 285.527 295.286 287.221 293.252 288.012C291.746 288.596 290.161 288.302 288.944 289.66C288.052 290.655 287.45 292.472 288.148 293.772C289.197 295.726 291.468 294.714 293.043 295.331C295.446 296.273 294.875 300.582 295.367 303.056C295.682 304.646 296.376 309.098 298.455 309.026C301.29 308.929 300.19 302.675 300.032 300.849C299.873 298.997 299.494 297.426 301.376 296.85C302.967 296.364 305.188 297.266 306.83 297.255C308.905 297.241 311.349 296.669 312.601 294.628C313.316 293.461 313.77 290.319 312.222 289.569Z" fill="black"/>
<path fill-rule="evenodd" clip-rule="evenodd" d="M416.414 366.546C420.922 366.973 418.19 373.071 421.182 375.496C424.036 377.809 424.42 371.424 424.419 369.602C424.417 365.186 429.309 366.818 432.287 366.087C434.828 365.464 437.603 362.567 434.568 360.099C432.378 358.317 428.746 359.144 426.203 358.672C422.757 358.033 423.781 355.507 423.704 352.595C423.677 351.528 423.342 347.724 422.087 347.424C419.787 346.875 419.65 353.961 419.495 355.309C418.84 361.015 415.27 357.539 412.434 360.399C408.727 364.138 413.729 366.291 416.414 366.546Z" fill="black"/>
<path fill-rule="evenodd" clip-rule="evenodd" d="M202.008 260.172C194.965 266.509 186.967 265.601 180.521 258.779C177.796 255.894 176.149 252.987 176.392 248.765C176.611 244.966 177.627 240.768 180.398 238.202C182.731 236.04 187.133 235.264 190.087 234.961C194.228 234.538 197.933 237.013 200.798 240.106C203.292 242.799 206.208 246.231 206.593 250.23C206.998 254.437 204.814 257.646 202.008 260.172ZM203.079 234.952C196.762 228.273 185.558 228.944 179.036 235.035C171.715 241.872 170.463 254.715 177.499 262.206C184.914 270.1 194.701 269.248 202.55 262.7C206.76 259.188 209.045 254.682 209.631 248.899C210.185 243.434 206.534 238.605 203.079 234.952Z" fill="black"/>
<path fill-rule="evenodd" clip-rule="evenodd" d="M325.241 119.984C324.532 122.513 325.023 125.208 325.149 127.785C323.146 126.409 321.899 123.956 319.749 122.817C318.717 125.944 323.856 134.891 327.091 131.958C330.05 129.275 327.866 121.786 325.241 119.984Z" fill="black"/>
<path fill-rule="evenodd" clip-rule="evenodd" d="M335.75 135.408C334.156 136.06 332.673 135.879 331.101 136.213C330.064 136.433 329.93 135.786 329.796 137.09C329.509 139.873 333.598 140.949 335.44 140.91C337.688 140.862 340.152 139.202 339.934 136.501C339.709 133.686 337.483 134.699 335.75 135.408Z" fill="black"/>
<path fill-rule="evenodd" clip-rule="evenodd" d="M337.056 123.713C336.332 122.992 334.666 120.268 333.443 120.734C332.505 121.091 333.168 122.321 333.443 122.936C334.472 125.244 336.493 127.208 338.107 129.059C336.912 129.525 334.609 129.825 335.217 131.845C335.776 133.7 338.31 133.415 339.524 132.634C343.683 129.957 339.137 125.787 337.056 123.713Z" fill="black"/>
<path fill-rule="evenodd" clip-rule="evenodd" d="M341.254 119.332C341.539 120.606 341.692 121.809 341.064 123.004L337.601 116.184C334.815 117.44 339.701 127.266 342.547 126.178C344.515 125.426 343.57 120.808 343.259 119.355C343.093 118.577 342.697 116.103 341.715 115.852C339.783 115.358 341.044 118.392 341.254 119.332Z" fill="black"/>
<path fill-rule="evenodd" clip-rule="evenodd" d="M198.357 256.895C196.751 255.595 194.088 258.64 192.39 258.65C188.957 258.671 190.826 254.25 188.678 252.817C187.557 252.07 182.867 252.823 183.608 249.73C184.053 247.868 185.796 249.212 186.751 248.075C187.95 246.65 186.241 245.513 185.178 244.927C185.645 244.244 188.333 243.944 189.008 244.417C190.174 245.234 190.106 247.683 191.176 248.945C192.563 247 191.81 244.556 193.288 242.81C193.862 242.131 195.541 241.621 194.888 240.411C194.51 239.708 192.852 239.94 192.285 239.382C191.79 238.894 191.814 237.322 191.015 237.191C189.709 236.978 189.741 239.168 189.349 239.801C188.169 241.701 182.985 241.046 185.133 244.902C183.702 244.118 179.797 243.498 180.555 246.236C180.748 246.936 181.486 247.364 181.67 248.162C181.829 248.854 181.479 249.84 181.446 250.534C181.384 251.85 181.288 253.389 182.175 254.448C183.394 255.903 185.024 254.844 186.331 255.477C188.113 256.339 187.471 258.131 188.411 259.698C189.642 261.749 191.534 261.119 193.276 260.498C195.354 259.759 195.682 259.692 197.203 261.592C197.898 260.605 199.802 258.064 198.357 256.895Z" fill="black"/>
<path fill-rule="evenodd" clip-rule="evenodd" d="M201.151 248.89C199.475 248.549 200.136 243.065 198.096 245.448C197.331 246.341 198.114 248.083 197.261 249.04C196.688 249.683 195.96 249.304 195.387 249.726C194.872 250.104 194.741 250.829 194.438 251.383C195.516 251.916 196.349 251.985 197.501 251.752C197.501 252.705 196.925 255.508 198.404 255.303C199.781 255.112 199.392 252.299 200.092 251.424C200.804 250.535 203.671 250.948 203.938 249.698C204.268 248.151 201.884 249.038 201.151 248.89Z" fill="black"/>
</svg>
